<svg xmlns="http://www.w3.org/2000/svg" width="476" height="362" fill="none" xmlns:v="https://vecta.io/nano"><style><![CDATA[.B{stroke-linecap:round}.C{stroke-linejoin:round}.D{stroke:#fff8f1}.E{fill:#1d1e1c}.F{fill:#1d1d1b}.G{fill-rule:evenodd}]]></style><g class="E"><path d="M152.6 219.212v91.047c0 3.056-1.847 4.681-4.681 4.681H56.306v-95.728H152.6zm-86.106-7.016a2.9 2.9 0 1 0-5.806 0 2.903 2.903 0 0 0 5.806 0zm8.602 0a2.9 2.9 0 0 0-2.9-2.9 2.894 2.894 0 0 0-2.9 2.9 2.899 2.899 0 1 0 5.8 0zm8.602 0c0-1.606-1.293-2.9-2.9-2.9a2.9 2.9 0 1 0 2.9 2.9zm68.902-6.346v13.362H56.306v-8.681c0-3.055 1.84-4.681 4.681-4.681H152.6z"/><path d="M142.294 201.214v4.636H60.987c-2.841 0-4.681 1.626-4.681 4.681v95.092H50.68c-2.84 0-4.681-1.626-4.681-4.681v-99.728c0-3.056 1.84-4.681 4.681-4.681h86.932c2.835 0 4.681 1.625 4.681 4.681zm-61.495 8.082c1.606 0 2.9 1.294 2.9 2.9a2.9 2.9 0 1 1-2.9-2.9zm-8.602 0a2.9 2.9 0 1 1-2.9 2.9c0-1.606 1.294-2.9 2.9-2.9zm-8.609 0a2.9 2.9 0 1 1 0 5.8c-1.6 0-2.9-1.301-2.9-2.9a2.9 2.9 0 0 1 2.9-2.9z"/></g><g class="D"><g stroke-miterlimit="10" class="C"><path d="M152.6 219.212v91.047c0 3.056-1.847 4.681-4.681 4.681H56.306V210.531c0-3.055 1.84-4.681 4.681-4.681H152.6v13.362zm-96.294 0H152.6" class="B"/><path d="M66.494 212.196a2.904 2.904 0 0 1-5.806 0 2.9 2.9 0 1 1 5.806 0zm8.602 0a2.899 2.899 0 1 1-5.8 0c0-1.606 1.295-2.9 2.9-2.9a2.9 2.9 0 0 1 2.9 2.9zm8.602 0a2.9 2.9 0 1 1-2.9-2.9c1.607 0 2.9 1.294 2.9 2.9z"/><path d="M56.306 305.623H50.68c-2.84 0-4.681-1.626-4.681-4.681v-99.728c0-3.056 1.84-4.681 4.681-4.681h86.932c2.835 0 4.681 1.625 4.681 4.681v4.636" class="B"/></g><path d="M429.819 152.679c-9.765 0-17.681 7.914-17.681 17.676s7.915 17.678 17.681 17.678 17.681-7.915 17.681-17.678-7.916-17.676-17.681-17.676zm-44.638.002c-9.764 0-17.681 7.912-17.681 17.675s7.916 17.677 17.681 17.677 17.682-7.914 17.682-17.677-7.917-17.675-17.682-17.675zm22.319-3.295c9.765 0 17.681-7.915 17.681-17.677s-7.916-17.676-17.681-17.676-17.681 7.914-17.681 17.676 7.916 17.677 17.681 17.677zM42.576 106.191v-.5H33.57a8.998 8.998 0 1 0 0 18.012 8.998 8.998 0 0 0 9.006-9.006v-8.506zm12.26-.5a8.998 8.998 0 0 0-9.007 9.006v21.265a8.998 8.998 0 1 0 18.012 0v-21.265a8.998 8.998 0 0 0-9.006-9.006z" class="E"/><path d="M63.341 81.044h.5V72.04a8.998 8.998 0 1 0-18.012 0 8.998 8.998 0 0 0 9.006 9.005h8.506zm.5 12.324a8.998 8.998 0 0 0-9.006-9.006H33.506a8.998 8.998 0 1 0 0 18.012h21.33a8.998 8.998 0 0 0 9.005-9.006z" fill="#000"/><path d="M88.424 101.874v.5h9.006a8.998 8.998 0 1 0 0-18.012 8.998 8.998 0 0 0-9.006 9.006v8.506zm-12.259.5a8.998 8.998 0 0 0 9.006-9.006v-21.33a8.998 8.998 0 1 0-18.012.001v21.329a8.998 8.998 0 0 0 9.006 9.006z" class="E"/><path d="M67.66 126.956h-.5v9.006a8.998 8.998 0 1 0 18.011 0 8.998 8.998 0 0 0-9.006-9.006H67.66zm-.5-12.259a8.998 8.998 0 0 0 9.005 9.006h21.33a8.997 8.997 0 1 0 0-18.012h-21.33a8.998 8.998 0 0 0-9.006 9.006zm264.488 182.375l.353.353.354-.353 42.592-42.593.354-.354-.354-.353-17.592-17.593-.354-.353-.353.353-42.593 42.593-.353.353.353.354 17.593 17.593z" class="F"/></g><mask id="A" maskUnits="userSpaceOnUse" x="305.177" y="234.914" width="103.238" height="103.238" fill="#000"><path fill="#fff" d="M305.177 234.914h103.238v103.238H305.177z"/><path d="M399.593 293.94 357 336.533l-17.592-17.593 32.407-32.407L357 271.718c-9.716-9.716-9.716-25.469 0-35.185l47.879 47.878a3.001 3.001 0 0 1 0 4.243l-5.286 5.286Z" class="G"/></mask><path d="M399.593 293.94 357 336.533l-17.592-17.593 32.407-32.407L357 271.718c-9.716-9.716-9.716-25.469 0-35.185l47.879 47.878a3.001 3.001 0 0 1 0 4.243l-5.286 5.286Z" class="F G"/><path d="m399.593 293.94-.708-.707-.707.707.707.707.708-.707Zm0 0 .707.707.707-.707-.707-.707-.707.707ZM357 336.533l-.707.707.707.707.707-.707-.707-.707Zm-17.593-17.593-.707-.707-.707.707.707.707.707-.707Zm32.408-32.407.707.707.707-.707-.707-.708-.707.708Zm-14.815-50 .707-.708-.707-.707-.707.707.707.708Zm41.885 58.114h.001l1.414-1.414-1.415 1.414Zm.001-1.414-42.593 42.593 1.414 1.414 42.593-42.593-1.414-1.414Zm-41.179 42.593-17.592-17.593-1.415 1.414 17.593 17.593 1.414-1.414Zm-17.592-16.179 32.407-32.407-1.414-1.415-32.408 32.408 1.415 1.414Zm32.407-33.822-14.815-14.814-1.414 1.414 14.815 14.815 1.414-1.415Zm-14.815-14.814c-9.325-9.326-9.325-24.446 0-33.771l-1.414-1.415c-10.107 10.107-10.107 26.493 0 36.6l1.414-1.414Zm-1.414-33.771 47.879 47.878 1.414-1.414-47.879-47.879-1.414 1.415Zm47.879 47.878a2 2 0 0 1 0 2.829l1.414 1.414a4 4 0 0 0 0-5.657l-1.414 1.414Zm0 2.829-5.287 5.286 1.415 1.414 5.286-5.286-1.414-1.414Z" fill="#fff8f1" mask="url(#A)"/><g class="F"><path d="m306.648 286.179-.354.354.354.353 50 50 .353-.353.354.353c9.911-9.911 9.911-25.981 0-35.892l-32.408-32.408-.353-.353-.354.353-17.592 17.593Z" class="D"/><path d="m332.001 296.718-17.592-17.593 18.263-18.263 17.592 17.593-18.263 18.263Z"/></g><g class="E"><path d="M324.182 276.935c2.491 21.907-1.49 47.285-7.163 66.446h-28.015c0-39.068-1.89-53.592-15.799-72.682-14.089-19.361-39.158-24.851-47.502-26.978-7.799-2-34.397-7.672-41.941-10.836-11.036-4.635-7.509-14.707-6.982-16.816.547-2.127 2.474-9.654 3.527-12.563 1.073-2.926 3.708-3.4 5.054-3.544 2.073-.201 8.218-.418 11.489-.437 3.529-.017 4.509 1.419 5.473 2.746.982 1.327 5.508 10.49 11.399 17.633 5.672 6.909 14.762 6.345 20.179 3.254 5.619-3.198 6.8-7.925 6.418-11.943a16.887 16.887 0 0 0-.728-3.417c-.108-.328-.273-.765-.472-1.31 3.327-.963 5.49-3.091 6.8-5.799 1.327-2.763 1.871-6.217 1.181-9.617a13.877 13.877 0 0 0-.872-2.836l-8.854-20.415c-2.927-6.472-6.073-13.017-8.509-17.2a21.467 21.467 0 0 0-1.145-1.745c-.473-7.072-1.691-22.432-1.655-30.722.02-6.037.909-11.892 2.309-14.981v-.019c2.8-2.017 9.491-6.162 13.836-11.216 2.163-2.509 3.799-4.91 4.89-7.381 5.527.51 9.653 3.344 12.089 7.072 3.072 4.671 3.363 8.416 4.382 14.434 1.054 6.146 4.217 32.905 6.489 44.269 2.328 11.634 5.327 25.596 11.999 38.686 5.254 10.308 12.472 20.051 16.58 25.797 3.963 5.544 11.816 16.616 17.379 30.596 4.71 11.889 7 21.253 8.164 31.524z"/><path d="M289.004 343.382h-81.627c-1.309-4.854-6.727-14.672-19.452-23.524-12.745-8.837-54.667-39.178-59.066-42.959-5.636-4.854-12.489-16.199-7.728-33.524 4.783-17.344 18.617-56.83 20.272-61.484 3.308-9.289 10.217-15.78 20.524-16.398 8.944-.564 40.323-.145 45.45 0 5.89.146 13.435 1.582 18.379 11.489l.928 1.873a548.894 548.894 0 0 1 4.091 8.599c-3.928-.508-9.146 1.509-9.855 7.398-.89 7.128 1.71 12.473 3.91 16.018 4.309 6.925 12.725 6.327 15.47.346h.019c.381 4.017-.8 8.744-6.419 11.943-5.417 3.091-14.507 3.655-20.179-3.254-5.889-7.146-10.417-16.308-11.398-17.635-.963-1.327-1.945-2.763-5.472-2.744-3.273.017-9.417.236-11.49.435-1.344.146-3.981.619-5.053 3.546-1.055 2.909-2.982 10.436-3.528 12.562-.526 2.11-4.054 12.181 6.982 16.816 7.544 3.164 34.141 8.835 41.94 10.835 8.344 2.127 33.414 7.618 47.504 26.979 13.907 19.088 15.798 33.615 15.798 72.683zM144.839 112.953a39.904 39.904 0 0 1 6.654-5.835c6.762-4.673 23.234-14.962 39.104-24.707l12.271-7.508.2.327c3.618 5.946 10.127 7.072 17.144 5.108 5.526-1.544 14.162-6.453 15.78-10.779 1.672-4.508-.437-8.4-4.89-10.944 2.598-.692 5.199-.51 8.035.817 4.472 2.09 8.363 6.29 9.362 13.454.619 4.526.146 8.198-1.4 11.67-1.089 2.473-2.727 4.874-4.89 7.382-4.345 5.053-11.034 9.199-13.834 11.216-.165.129-.309.236-.437.328-2.472 1.891-39.467 27.488-41.322 28.941-1.582 1.254-3.89 2.292-3.89 6.346v.109c-8.509-.165-17.054-.182-21.871.219-12.271 1.016-19.397 8.361-21.597 16.47-1.164 4.307-8.581 40.376-13.653 65.428.889-10.944 7.108-76.955 8.198-83.808 1.528-9.598 5.273-17.888 11.036-24.234zM247.1 191.072a15.43 15.43 0 0 1-1.182 9.617c-1.309 2.709-3.473 4.836-6.8 5.799-.945-2.399-2.817-6.781-4.999-11.707 4.581 2.981 10.944.981 12.981-3.709z"/><path d="M246.227 188.236c.401.926.69 1.891.873 2.836-2.037 4.69-8.4 6.691-12.981 3.709h-.017a761.363 761.363 0 0 0-3.327-7.328 557.293 557.293 0 0 0-4.091-8.598h.018a21.44 21.44 0 0 1 .182-3.527c.909-6.326 6.144-7.816 10.054-7.308l.435-.2c4.382 9.654 8.309 19.125 8.854 20.416Z"/><path d="M239.119 206.488l.472 1.31a16.94 16.94 0 0 1 .728 3.417h-.019c-2.744 5.981-11.163 6.582-15.47-.345-2.201-3.546-4.8-8.89-3.91-16.016.71-5.891 5.928-7.908 9.855-7.4a736.86 736.86 0 0 1 3.325 7.327h.019l5 11.707zm-1.746-38.668l-.437.199c-3.908-.508-9.143.982-10.052 7.309a21.447 21.447 0 0 0-.182 3.528h-.018l-.928-1.874c-4.945-9.908-12.489-11.344-18.378-11.488-5.128-.146-36.507-.564-45.45 0-10.308.617-17.217 7.107-20.525 16.398-1.655 4.654-15.489 44.14-20.271 61.483l4.472-22.325v-.054l13.653-65.43c2.2-8.108 9.326-15.452 21.598-16.47 4.818-.399 13.363-.382 21.869-.219l24.654.782c4.307.163 14.361 1.036 20.342 9.218.401.545.782 1.126 1.145 1.745 2.437 4.181 5.582 10.726 8.508 17.198zm-6.272-109.206c4.455 2.545 6.563 6.436 4.89 10.944-1.618 4.326-10.253 9.236-15.78 10.781-7.017 1.964-13.525.836-17.144-5.108l-.199-.328 23.652-14.308c1.563-.926 3.072-1.6 4.581-1.98zm-37.432-5.454c.255 4.927-2.399 22.999-3.218 28.997l.146.255-39.104 24.705a39.883 39.883 0 0 0-6.655 5.837c1.072-5.2 5.51-24.308 9.472-41.087l.381.092c4.909.836 8.236.399 11.345-3.42 3.546-4.362 6.018-10.652 6.018-19.724 0-5.745-3.527-8.344-9.454-8.562h-.018c2.108-3.236 5.471-4.8 9.836-5.527 5.762-.963 12.052 1.145 15.834 4.836 2.945 2.873 5.089 7.017 5.417 13.598z"/><path d="M172.054 48.815c0 9.073-2.472 15.362-6.018 19.725-3.108 3.818-6.436 4.254-11.345 3.417l-.381-.09 6.581-27.706c.401-1.509.982-2.8 1.691-3.908h.018c5.927.218 9.454 2.817 9.454 8.562z"/></g><g class="B C D"><path d="M234.119 194.781l4.999 11.707.474 1.309a17.05 17.05 0 0 1 .727 3.418c.381 4.017-.8 8.744-6.418 11.945-5.418 3.089-14.507 3.653-20.18-3.255-5.889-7.145-10.416-16.307-11.398-17.634-.963-1.327-1.945-2.764-5.471-2.746-3.274.019-9.418.237-11.491.437-1.346.146-3.981.618-5.055 3.546-1.053 2.907-2.98 10.434-3.526 12.56-.528 2.11-4.054 12.181 6.982 16.818 7.544 3.162 34.141 8.835 41.941 10.835 8.343 2.126 33.413 7.617 47.503 26.977 13.907 19.09 15.798 33.615 15.798 72.683"/><path d="M247.1 84.557c5.526.508 9.653 3.344 12.088 7.072 3.074 4.672 3.364 8.417 4.382 14.434 1.055 6.144 4.219 32.905 6.491 44.269 2.327 11.634 5.326 25.597 11.999 38.685 5.253 10.309 12.471 20.053 16.578 25.798 3.964 5.544 11.819 16.616 17.382 30.596 4.707 11.889 6.997 21.253 8.161 31.524 2.491 21.907-1.49 47.285-7.162 66.446H207.377c-1.309-4.853-6.727-14.67-19.452-23.523-12.745-8.837-54.667-39.178-59.066-42.959-5.636-4.854-12.489-16.199-7.728-33.525 4.783-17.343 18.617-56.829 20.272-61.483 3.308-9.289 10.217-15.78 20.524-16.398 8.944-.564 40.323-.146 45.45 0 5.89.146 13.435 1.582 18.379 11.49l.928 1.872 4.091 8.599a761.345 761.345 0 0 1 3.327 7.327"/><path d="M125.604 220.996l13.654-65.429c2.2-8.109 9.326-15.454 21.597-16.47 4.817-.401 13.362-.384 21.87-.219l24.652.781c4.309.165 14.363 1.037 20.344 9.218.399.545.78 1.127 1.145 1.745 2.435 4.18 5.58 10.725 8.508 17.197 4.38 9.654 8.308 19.127 8.852 20.417.401.927.692 1.891.873 2.837a15.41 15.41 0 0 1-1.182 9.617c-1.307 2.707-3.471 4.834-6.798 5.799h-.019m-117.968 36.886l4.472-22.325"/><path d="M125.604 221.05v-.053c.892-10.946 7.109-76.956 8.2-83.809 1.527-9.6 5.272-17.89 11.034-24.235a40.002 40.002 0 0 1 6.655-5.836c6.763-4.671 23.234-14.961 39.104-24.705l12.271-7.51 23.652-14.307c1.563-.926 3.073-1.6 4.582-1.98 2.6-.691 5.198-.509 8.035.818 4.472 2.09 8.363 6.29 9.362 13.452.619 4.528.145 8.2-1.4 11.671-1.09 2.474-2.727 4.873-4.89 7.381-4.346 5.055-11.034 9.199-13.834 11.218l-.437.326c-2.472 1.891-39.468 27.488-41.322 28.943-1.582 1.255-3.891 2.29-3.891 6.344"/></g><path d="M252.045 57.487h23.706m7.49-11.017V19m-5.527 31.415l-12.98-15.017m18.507 33.124v27.47m-5.527-31.415l-12.98 15.017m49.685-21.798h-23.706m-1.946-7.09l12.981-15.017m-12.981 29.197l12.981 15.017" stroke="#1d1e1c" class="B C"/><path d="M144.784 113.226l.054-.272c1.073-5.201 5.509-24.306 9.473-41.088l6.579-27.704c.401-1.51.982-2.8 1.692-3.91 2.109-3.235 5.473-4.798 9.835-5.527 5.763-.962 12.053 1.147 15.834 4.837 2.946 2.872 5.092 7.017 5.418 13.598.255 4.926-2.399 22.998-3.218 28.996m37.269 66.721c-.472-7.073-1.691-22.435-1.655-30.725.019-6.035.909-11.889 2.309-14.979" class="B C D"/><path d="M301.421 95.974C317.237 112.318 327 134.66 327 159.294c0 16.143-4.2 31.306-11.527 44.43" stroke="#1d1e1c" class="B C"/><path d="M203.068 75.23c3.619 5.945 10.125 7.073 17.144 5.11 5.527-1.547 14.162-6.456 15.78-10.782 1.672-4.508-.437-8.4-4.89-10.944m-.328 128.84c-3.927-.508-9.145 1.509-9.853 7.398-.891 7.128 1.709 12.473 3.909 16.018 4.308 6.927 12.725 6.327 15.471.346m-6.2-16.436h.017c4.583 2.982 10.946.982 12.981-3.708m-10.162-23.052c-3.908-.508-9.145.982-10.054 7.308a21.432 21.432 0 0 0-.18 3.527M154.692 71.958c4.909.836 8.236.4 11.345-3.417 3.544-4.365 6.017-10.654 6.017-19.725 0-5.745-3.528-8.346-9.454-8.564" class="B C D"/></svg>