<svg width="500" height="400" fill="none" xmlns="http://www.w3.org/2000/svg"><g clip-path="url(#a)"><path d="M85.72 148.631a3.69 3.69 0 0 1 3.62 4.413 3.691 3.691 0 1 1-3.62-4.413Zm-54.67 3.809a54.827 54.827 0 0 0 65.537 53.756A54.829 54.829 0 0 0 85.875 97.594 54.566 54.566 0 0 0 47.03 113.58a54.564 54.564 0 0 0-15.98 38.846v.014Z" fill="#1E1F1D"/><path d="M85.72 148.631a3.693 3.693 0 0 0-.718 7.312 3.69 3.69 0 1 0 .717-7.312ZM154.344 29.973v207.318h49.687v-2.439h19.09v-46.534h-47.976l5.194-61.765a3.185 3.185 0 0 1-1.92-5.462 3.19 3.19 0 0 1 2.187-.896 3.14 3.14 0 0 1 1.593.43l25.219-43.676a3.178 3.178 0 0 1-1.582-2.475 3.186 3.186 0 0 1 5.312-2.637c.378.345.668.775.844 1.254l22.557-8.33a3.045 3.045 0 0 1-.201-1.105 3.19 3.19 0 0 1 4.806-2.75 3.185 3.185 0 0 1 1.572 2.789 3.19 3.19 0 0 1-1.641 2.748l21.974 39.5a3.194 3.194 0 0 1 3.224.072l19.488-31.528a3.187 3.187 0 1 1 4.668-3.809l26.005-9.46a3.182 3.182 0 0 1 1.054-3.618 3.183 3.183 0 0 1 4.956 1.503 3.183 3.183 0 0 1-3.018 4.21V110.1a11.923 11.923 0 0 1 2.403-.98c-.481-4.1 1.233-7.645 3.757-10.17 2.525-2.524 6.043-4.224 10.122-3.76 1.125-3.972 4.058-6.58 7.351-7.965a13.994 13.994 0 0 1 2.535-.79V29.974h-189.26ZM154.344 23.076v6.897h21.047V9.585h-7.559a13.533 13.533 0 0 0-13.488 13.49Z" fill="#1E1F1D"/><path d="m180.336 126.553-5.194 61.765h47.979v-6.682h19.046v6.682h75.245v-24.146a12.671 12.671 0 0 1-5.565-6.382c-1.367-3.293-1.592-7.216.402-10.817-3.206-2.563-4.502-6.265-4.502-9.821s1.292-7.272 4.502-9.824c-2.012-3.601-1.79-7.531-.426-10.828a12.664 12.664 0 0 1 5.572-6.399V63.327a3.177 3.177 0 0 1-2.992-2.096l-26.005 9.46c.125.35.189.717.19 1.088a3.186 3.186 0 0 1-4.848 2.708l-19.467 31.528a3.186 3.186 0 1 1-3.224-.073l-21.975-39.499a3.19 3.19 0 0 1-4.536-1.683l-22.542 8.328c.135.351.204.725.201 1.101a3.186 3.186 0 0 1-3.183 3.186 3.118 3.118 0 0 1-1.593-.43l-25.226 43.676a3.18 3.18 0 0 1 1.48 3.581 3.187 3.187 0 0 1-3.339 2.351ZM343.597 9.585H175.394v20.371h168.203V9.585Z" fill="#1E1F1D"/><path d="M180.602 120.195a3.184 3.184 0 0 0-3.154 3.052 3.185 3.185 0 0 0 2.888 3.306c.089.005.178.005.266 0a3.186 3.186 0 0 0 1.593-5.942 3.141 3.141 0 0 0-1.593-.416ZM203.801 286.771h-19.47v33.747h19.47v-33.747ZM203.801 298.869v24.245h19.469v-92.156h-19.469v67.911ZM209.007 71.004a3.185 3.185 0 0 0-1.593 5.941 3.116 3.116 0 0 0 1.593.43 3.188 3.188 0 0 0 2.252-.933 3.177 3.177 0 0 0 .93-2.253 3.002 3.002 0 0 0-.2-1.1 3.169 3.169 0 0 0-2.982-2.085ZM216.168 382.82h6.926v-12.812a98.714 98.714 0 0 1-6.926 12.812Z" fill="#1E1F1D"/><path d="M228.316 355.177a95.2 95.2 0 0 1-5.219 14.814v12.812h19.07V177.701h-19.046v142.995h9.79c0 7.023-.132.577-.499 6.741-.287 4.848-.713 9.439-1.33 13.868a117.739 117.739 0 0 1-2.766 13.872Z" fill="#1E1F1D"/><path d="M223.111 382.803v-12.795" stroke="#FFF8F1" stroke-linecap="round" stroke-linejoin="round"/><path d="M234.337 63.655a3.177 3.177 0 0 0 5.87 1.684 3.178 3.178 0 1 0-5.87-1.684ZM242.184 218.527v164.276h19.076V218.527h-19.076Z" fill="#1E1F1D"/><path d="M242.167 188.318v32.252h19.079v16.721h42.343a39.995 39.995 0 0 1-2.248-16.721c10.465 0 23.838 3.438 34.101 15.61a13.538 13.538 0 0 0 8.152-12.383v-35.985a13.575 13.575 0 0 1-2.493-.772c-3.307-1.364-6.233-3.989-7.376-7.964-4.103.484-7.653-1.226-10.177-3.751-2.524-2.524-4.238-6.077-3.757-10.177a11.867 11.867 0 0 1-2.365-.966v24.146l-75.259-.01ZM261.049 105.943a3.191 3.191 0 0 0-1.412 3.972 3.19 3.19 0 1 0 1.412-3.972ZM261.26 279.267v103.536h19.073V279.267H261.26ZM299.409 314.327h-19.076v68.479h19.076v-68.479ZM285.451 68.593a3.183 3.183 0 0 0-2.946 1.965 3.187 3.187 0 0 0 2.319 4.345 3.188 3.188 0 0 0 3.809-3.124 3.188 3.188 0 0 0-3.182-3.186Z" fill="#1E1F1D"/><path d="M422.205 190.627c-16.749 0-40.94 8.802-47.918 48.132-.398 2.226-.779 5.79-2.237 5.79-.983 0-1.17-1.095-1.17-2.563V188.76c-2.507 2.642-5.887 3.719-9.135 3.719s-6.579-1.059-9.072-3.653v84.391c0 1.471-.19 2.562-1.17 2.562-1.458 0-1.843-3.563-2.237-5.79-2.618-14.744-7.656-25.198-13.817-32.511-10.263-12.172-23.636-15.614-34.101-15.61a39.995 39.995 0 0 0 2.248 16.721 53.277 53.277 0 0 0 11.444 18.626c6.285 6.534 13.158 10.818 19.987 15.06 4.342 2.701 9.46 5.471 13.712 12.095 4.253 6.624 3.92 12.84 3.92 21.497v62.676h18.225v-93.914c0-8.656-.347-14.858 3.923-21.496 4.269-6.638 9.374-9.402 13.719-12.096 6.829-4.241 13.702-8.525 19.987-15.059 5.831-6.06 15.063-19.447 13.692-35.351ZM312.28 127.328c-3.22 2.563-4.501 6.268-4.501 9.824s1.288 7.272 4.501 9.821c1.756 1.402 4.097 2.465 7.119 2.971 3.314.55 7.335.512 11.379.031 5.076-.596 10.194-1.887 14.024-3.56a19.335 19.335 0 0 1 .028-18.508c-3.809-1.662-8.889-2.944-13.938-3.553-4.086-.492-8.151-.54-11.493.017-3.029.506-5.363 1.562-7.119 2.957Z" fill="#1E1F1D"/><path d="M311.854 116.5c-1.364 3.297-1.586 7.227.426 10.828 1.756-1.385 4.09-2.451 7.102-2.957 3.342-.557 7.407-.509 11.493-.017-3.238-2.549-6.146-5.392-8.12-8.155-1.766-2.472-2.67-4.848-2.926-7.078-.835.238-1.64.567-2.403.98a12.664 12.664 0 0 0-5.572 6.399ZM312.263 146.973c-1.995 3.601-1.77 7.524-.402 10.817a12.667 12.667 0 0 0 5.565 6.382c.751.406 1.544.729 2.365.966.256-2.219 1.16-4.605 2.926-7.074 1.956-2.739 4.848-5.541 8.044-8.089-4.045.481-8.065.519-11.379-.031-3.023-.506-5.364-1.569-7.119-2.971ZM314.24 60.14a3.186 3.186 0 1 0 3.186-3.185 3.151 3.151 0 0 0-2.952 1.962 3.151 3.151 0 0 0-.234 1.224Z" fill="#1E1F1D"/><path d="M319.791 165.138c-.481 4.1 1.233 7.649 3.757 10.177 2.524 2.528 6.074 4.235 10.177 3.75 2.22-.256 4.602-1.16 7.071-2.922 2.77-1.971 5.599-4.876 8.144-8.114.606-5.027 1.887-10.09 3.546-13.885a19.466 19.466 0 0 1-7.708-7.715c-3.83 1.672-8.948 2.964-14.024 3.56-3.21 2.531-6.088 5.349-8.044 8.089-1.759 2.441-2.663 4.84-2.919 7.06ZM323.586 98.951c-2.524 2.525-4.238 6.07-3.757 10.17.256 2.223 1.16 4.606 2.926 7.078 1.974 2.77 4.882 5.606 8.12 8.155 5.049.609 10.129 1.891 13.938 3.553a19.39 19.39 0 0 1 7.676-7.667c-1.679-3.84-2.971-8.982-3.573-14.076-2.528-3.213-5.343-6.087-8.082-8.044-2.49-1.776-4.89-2.684-7.126-2.93-4.08-.463-7.608 1.244-10.122 3.761Z" fill="#1E1F1D"/><path d="M343.594 86.444c-.868.182-1.717.447-2.535.79-3.293 1.364-6.233 3.985-7.351 7.964 2.237.246 4.636 1.153 7.126 2.93 2.739 1.956 5.54 4.83 8.082 8.043-.471-4.044-.516-8.05.042-11.358.502-3.026 1.568-5.374 2.981-7.133a11.794 11.794 0 0 0-8.345-1.236ZM333.725 179.065c1.125 3.986 4.069 6.611 7.376 7.965.804.336 1.639.595 2.493.772 2.821.635 5.777.216 8.31-1.178-1.385-1.752-2.424-4.072-2.933-7.067-.564-3.352-.512-7.434-.017-11.538-2.545 3.238-5.385 6.143-8.144 8.113-2.483 1.773-4.865 2.677-7.085 2.933ZM344.813 127.907a19.332 19.332 0 0 0-.028 18.508 19.454 19.454 0 0 0 7.708 7.715 19.309 19.309 0 0 0 28.35-14.209 19.31 19.31 0 0 0-2.168-11.997 19.391 19.391 0 0 0-7.688-7.684 19.341 19.341 0 0 0-18.498 0 19.39 19.39 0 0 0-7.676 7.667Z" fill="#1E1F1D"/><path d="M374.561 106.178c.471-4.045.516-8.061-.038-11.372-.509-3.033-1.576-5.38-2.995-7.143-2.552-3.186-6.233-4.467-9.786-4.467s-7.244 1.28-9.803 4.477c-1.413 1.76-2.479 4.107-2.981 7.133-.558 3.307-.513 7.314-.042 11.358.603 5.094 1.894 10.236 3.574 14.076a19.341 19.341 0 0 1 18.498 0c1.676-3.837 2.971-8.972 3.573-14.062ZM348.94 168.029c-.495 4.104-.547 8.186.018 11.538.498 2.996 1.54 5.316 2.932 7.068.241.313.501.61.78.89 2.496 2.593 5.845 3.653 9.072 3.653 3.227 0 6.628-1.077 9.135-3.719.274-.285.532-.585.775-.897 1.358-1.731 2.376-4.041 2.871-6.995.561-3.359.509-7.452 0-11.565-.61-5.021-1.891-10.077-3.546-13.851a19.329 19.329 0 0 1-18.491 0c-1.659 3.809-2.94 8.857-3.546 13.885v-.007Z" fill="#1E1F1D"/><path d="M370.98 154.13c1.656 3.788 2.937 8.844 3.546 13.851 2.545 3.245 5.395 6.16 8.159 8.134 2.482 1.773 4.879 2.677 7.109 2.926 4.089.468 7.618-1.24 10.138-3.757 2.521-2.517 4.242-6.084 3.751-10.194-.26-2.216-1.16-4.592-2.919-7.057-1.957-2.736-4.848-5.541-8.058-8.086-5.07-.606-10.181-1.897-14.004-3.567a19.379 19.379 0 0 1-7.722 7.75ZM371.528 87.663c1.419 1.762 2.486 4.11 2.995 7.143.554 3.31.509 7.328.038 11.372 2.531-3.213 5.35-6.094 8.089-8.047 2.465-1.76 4.848-2.663 7.061-2.923-1.129-3.972-4.073-6.596-7.369-7.964-3.297-1.368-7.206-1.58-10.814.419Z" fill="#1E1F1D"/><path d="M374.523 179.564c-.495 2.954-1.513 5.249-2.871 6.995 3.602 1.991 7.525 1.766 10.818.394 3.293-1.371 6.191-3.961 7.331-7.895-2.23-.249-4.627-1.153-7.109-2.926-2.771-1.974-5.614-4.889-8.159-8.134.499 4.117.551 8.21-.01 11.566ZM374.561 106.178c-.602 5.09-1.897 10.225-3.573 14.062a19.395 19.395 0 0 1 7.687 7.684c3.809-1.659 8.875-2.95 13.924-3.56 3.244-2.548 6.156-5.391 8.13-8.154 1.79-2.507 2.691-4.924 2.933-7.172.447-4.062-1.257-7.573-3.764-10.08-2.507-2.507-6.063-4.231-10.187-3.754-2.217.26-4.595 1.164-7.061 2.923-2.739 1.957-5.558 4.838-8.089 8.051Z" fill="#1E1F1D"/><path d="M411.252 146.973c3.21-2.559 4.502-6.261 4.502-9.821 0-3.559-1.316-7.33-4.606-9.876-1.731-1.36-4.055-2.392-7.012-2.887-3.352-.561-7.434-.506-11.541 0-5.049.609-10.125 1.901-13.924 3.559a19.325 19.325 0 0 1 .025 18.474c3.809 1.669 8.933 2.961 14.003 3.567 4.065.484 8.103.529 11.427-.025 3.033-.526 5.371-1.565 7.126-2.991ZM383.952 321.72l-1.001 12.119 15.177 1.254.998-12.12-15.174-1.253ZM384.897 303.994c-.346 3.511 3.034 6.874 8.886 9.72l1.084-11.427c-5.859-2.77-9.243-5.956-8.952-9.055-.308 3.272-.8 8.466-1.018 10.762Z" fill="#1E1F1D"/><path d="M449.204 298.26a70.183 70.183 0 0 1-13.505.862 69.253 69.253 0 0 1-8.044-.713c-8.549-1.268-16.094-4.09-21.652-7.965a27.97 27.97 0 0 1-5.804-5.266c-8.459 1.534-13.934 4.363-14.284 8.04-.29 3.117 3.093 6.278 8.952 9.055 5.107 2.424 12.091 4.529 20.163 6.008a134 134 0 0 0 11.358 1.562c4.114.387 8.103.585 11.884.602 7.684.038 14.516-.658 19.8-1.935 6.579-1.6 10.776-4.111 11.171-7.272v-.118c.232-2.424-1.797-4.91-5.509-7.206a56.795 56.795 0 0 1-14.53 4.346ZM389.548 373.714v.003h15.225V361.552h-15.225v12.162Z" fill="#1E1F1D"/><path d="M389.548 349.391v12.162h84.48v-12.162h-84.48ZM393.783 313.714c5.097 2.483 12.085 4.574 20.16 6.032l1.087-11.462c-8.072-1.478-15.056-3.587-20.163-6.007l-1.084 11.437ZM400.199 285.178a27.993 27.993 0 0 0 5.793 5.266v-11.26c-5.703-3.955-9.349-9.004-9.844-14.572a14.26 14.26 0 0 1-.059-1.336v6.749c0 2.077-.038 3.919.128 5.866.284 3.331 1.686 6.464 3.982 9.287Z" fill="#1E1F1D"/><path d="M449.204 286.978c8.723-1.426 16.237-4.46 21.639-8.497 5.609-4.194 8.93-9.471 8.93-15.157v-.142c0-.398-.021-.793-.059-1.194-1.233-13.557-20.939-23.963-44.015-23.235-22.258.692-39.524 11.499-39.61 24.429v.094c0 .443 0 .89.059 1.336.509 5.575 4.155 10.617 9.844 14.572 5.568 3.857 13.11 6.679 21.653 7.964a70.805 70.805 0 0 0 21.559-.156v-.014Zm-13.055-25.06c.48-.193.99-.299 1.507-.311 1.541-.049 2.853.64 2.96 1.537a.049.049 0 0 1 0 .024c.083.915-1.111 1.694-2.663 1.732-1.551.038-2.881-.651-2.964-1.562-.052-.571.416-1.101 1.16-1.42ZM400.732 116.196c-1.973 2.77-4.886 5.606-8.13 8.154 4.107-.498 8.189-.554 11.541 0 2.957.503 5.274 1.541 7.005 2.926 2.03-3.615 1.808-7.566.433-10.876-1.375-3.31-3.975-6.212-7.923-7.345-.235 2.23-1.135 4.647-2.926 7.141ZM392.713 149.968c3.217 2.528 6.101 5.35 8.058 8.085 1.759 2.466 2.659 4.848 2.919 7.057 3.971-1.128 6.579-4.072 7.964-7.368 1.385-3.297 1.579-7.182-.398-10.769-1.756 1.409-4.093 2.469-7.109 2.971-3.331.554-7.369.509-11.434.024ZM399.126 322.973l-.998 12.12 17.944 1.482 1.001-12.12-17.947-1.482ZM404.773 373.714v.003h18.01V361.552h-18.01v12.162Z" fill="#1E1F1D"/><path d="M405.992 290.451c5.558 3.865 13.103 6.687 21.653 7.965v-11.279c-8.543-1.27-16.085-4.092-21.653-7.964v11.278ZM415.03 308.291l-1.087 11.462a138.75 138.75 0 0 0 11.358 1.545c4.113.387 8.099.592 11.884.616l1.087-11.455c-3.781 0-7.77-.215-11.884-.602a135.194 135.194 0 0 1-11.358-1.566ZM417.073 324.455l-1.001 12.12 18.98 1.565 1-12.116v-.003l-18.979-1.566ZM422.783 373.714v.003h19.042v-12.165h-19.042v12.162Z" fill="#1E1F1D"/><path d="M427.645 287.137v11.272c2.665.394 5.351.632 8.044.713 4.519.148 9.041-.14 13.505-.862v-11.278a70.806 70.806 0 0 1-21.559.155h.01ZM436.149 261.918c-.744.319-1.212.849-1.156 1.43.083.911 1.409 1.611 2.964 1.562 1.555-.048 2.746-.828 2.663-1.731a.105.105 0 0 0 0-.025c-.108-.896-1.42-1.585-2.961-1.537a4.317 4.317 0 0 0-1.51.301ZM436.052 326.024l-1 12.116 17.947 1.482.997-12.119-17.944-1.482v.003ZM438.272 310.456l-1.087 11.454c7.684.056 14.516-.619 19.803-1.956l1.084-11.427c-5.284 1.278-12.12 1.974-19.8 1.936v-.007ZM441.825 361.552v12.165h18.01V361.552h-18.01ZM449.204 286.982v11.278a56.76 56.76 0 0 0 14.543-4.336 39.336 39.336 0 0 0 7.096-4.155v-11.288c-5.402 4.037-12.916 7.071-21.639 8.497v.004ZM454.038 327.537l-.999 12.12 14.149 1.166.999-12.12-14.149-1.166Z" fill="#1E1F1D"/><path d="m458.072 308.52-1.084 11.427c6.683-1.683 10.901-4.422 11.247-8.054.211-2.272.693-7.369 1.008-10.652-.395 3.158-4.574 5.669-11.171 7.272v.007ZM459.834 373.714v.003h14.177l.017-.003v-12.162h-14.194v12.162ZM470.843 278.481v11.271c5.128-3.837 8.355-8.612 8.802-13.851.166-1.946.128-3.792.128-5.866v-6.711c0 5.686-3.321 10.963-8.93 15.157Z" fill="#1E1F1D"/><path d="M37.989 179.141a54.772 54.772 0 0 1 43.438-81.257 54.775 54.775 0 1 1-1.539 109.046 54.58 54.58 0 0 1-41.9-27.789v0ZM85.72 110.389v.009M43.533 152.319H36.33" stroke="#FFF8F1" stroke-linecap="round" stroke-linejoin="round"/><path d="M85.72 148.631a3.693 3.693 0 0 1 .718 7.312 3.69 3.69 0 1 1-.719-7.312ZM49.478 131.48l-6.233-3.598M64.991 116.237l-3.598-6.233M85.72 110.389v-7.199M127.909 152.26h7.196M121.957 131.421l6.236-3.598M106.444 116.178l3.598-6.233M121.946 173.099l6.233 3.598M106.433 188.345l3.598 6.233M85.712 194.19v7.196M49.471 173.158l-6.233 3.598M64.984 188.404l-3.597 6.233M85.72 156.014v6.44M85.72 116.237v32.391" stroke="#FFF8F1" stroke-linecap="round" stroke-linejoin="round"/><path d="M89.41 151.346c2.078 0 2.078 1.96 4.156 1.96s2.078-1.96 4.155-1.96c2.078 0 2.078 1.96 4.155 1.96 2.078 0 2.078-1.96 4.156-1.96 2.077 0 2.077 1.96 4.155 1.96 2.078 0 2.078-1.96 4.176-1.96 2.098 0 2.078 1.96 4.155 1.96" stroke="#FFF8F1" stroke-linecap="round" stroke-linejoin="round"/><path d="M75.096 20.371 71.626 5M71.716 23.446l-8.872-5.284M60.064 29.495l10.883-2.462M73.188 29.949l-5.745 8.584M79.445 21.7l5.741-8.583M92.562 22.154l-10.884 2.459M80.913 28.204l8.875 5.284M111.818 61.917l8.799 11.818M113.542 58.004l9.592 1.15M121.205 48.412l-8.373 6.226M109.82 53l1.648-9.519M107.597 62.426l-1.648 9.52M96.211 67.018l8.37-6.233M103.878 57.426l-9.599-1.15M52.681 70.467l-9.405 3.847M54.994 72.288l-2.41 6.209M60.084 79.054l-2.721-6.662M58.976 70.66l6.078 2.74M53.066 67.561l-6.078-2.739M51.957 59.164l2.719 6.666M57.048 65.934l2.41-6.209" stroke="#1E1F1D" stroke-linecap="round" stroke-linejoin="round"/><path d="M181.87 24.36c1.298 0 2.649-.723 3.556-2.424.557-1.06 1.731-3.611 2.365-4.726a3.715 3.715 0 0 1 6.579 0c.627 1.115 1.808 3.667 2.369 4.726.904 1.714 2.261 2.424 3.553 2.424 1.291 0 2.645-.723 3.549-2.424.564-1.06 1.731-3.611 2.372-4.726a3.711 3.711 0 0 1 6.579 0c.627 1.115 1.808 3.667 2.372 4.726.904 1.714 2.254 2.424 3.549 2.424s2.649-.723 3.553-2.424c.561-1.06 1.731-3.611 2.369-4.726a3.72 3.72 0 0 1 3.289-1.989 3.714 3.714 0 0 1 3.29 1.989c.627 1.115 1.807 3.667 2.365 4.726.907 1.714 2.261 2.424 3.556 2.424M160.934 24.302l4.342-4.25 4.346-4.252" stroke="#FFF8F1" stroke-linecap="round" stroke-linejoin="round"/><path d="m169.622 24.302-4.346-4.25-4.342-4.252M223.111 321.167V177.698h19.073V382.803M242.184 218.527h19.076v164.276M261.26 279.267h19.073v103.536M280.333 314.327h19.079v68.476M223.111 230.508h-19.08V321.167M203.031 286.106h-19.072v33.763M378.675 127.924a19.303 19.303 0 0 1-3.284 22.901 19.309 19.309 0 0 1-22.898 3.305 19.454 19.454 0 0 1-7.708-7.715 19.305 19.305 0 0 1 33.89-18.491v0Z" stroke="#FFF8F1" stroke-linecap="round" stroke-linejoin="round"/><path d="M370.981 120.24c1.676-3.837 2.971-8.972 3.573-14.062.471-4.045.516-8.061-.038-11.372-.509-3.033-1.575-5.38-2.995-7.143-2.552-3.186-6.233-4.467-9.786-4.467s-7.244 1.28-9.803 4.477c-1.413 1.76-2.479 4.107-2.981 7.133-.558 3.307-.513 7.314-.042 11.358.603 5.094 1.894 10.236 3.574 14.076M348.94 168.029c-.495 4.104-.547 8.186.018 11.538.498 2.996 1.54 5.316 2.932 7.068.241.313.501.61.78.89 2.496 2.593 5.845 3.653 9.072 3.653 3.227 0 6.628-1.077 9.135-3.719.274-.285.532-.585.775-.897 1.358-1.731 2.376-4.041 2.871-6.995.561-3.359.509-7.452 0-11.565-.61-5.021-1.891-10.077-3.546-13.851M352.489 154.137c-1.658 3.809-2.939 8.858-3.545 13.886M392.599 124.364c-5.049.61-10.126 1.901-13.924 3.56M378.709 146.401c3.809 1.669 8.934 2.961 14.004 3.567 4.065.485 8.103.53 11.427-.024 3.016-.502 5.353-1.562 7.109-2.971 3.21-2.559 4.501-6.261 4.501-9.821 0-3.559-1.312-7.33-4.602-9.876-1.731-1.36-4.055-2.392-7.012-2.887-3.352-.561-7.434-.506-11.541 0M344.813 127.907c-3.809-1.662-8.889-2.944-13.938-3.553-4.086-.492-8.151-.54-11.493.017-3.012.506-5.346 1.562-7.102 2.957-3.22 2.563-4.501 6.268-4.501 9.824s1.288 7.272 4.501 9.821c1.756 1.402 4.097 2.465 7.119 2.971 3.314.55 7.335.512 11.379.031 5.076-.596 10.194-1.887 14.024-3.56M389.71 95.208c-2.216.26-4.595 1.163-7.06 2.923-2.739 1.953-5.54 4.847-8.089 8.047M392.599 124.364c3.244-2.548 6.156-5.391 8.13-8.154 1.79-2.507 2.691-4.924 2.933-7.172.447-4.062-1.257-7.573-3.764-10.08-2.507-2.507-6.063-4.231-10.187-3.754" stroke="#FFF8F1" stroke-linecap="round" stroke-linejoin="round"/><path d="M330.761 149.975c-3.21 2.531-6.088 5.35-8.044 8.089-1.766 2.469-2.67 4.848-2.926 7.074-.481 4.1 1.233 7.649 3.757 10.177 2.524 2.528 6.074 4.235 10.177 3.75 2.22-.256 4.602-1.16 7.071-2.922 2.77-1.971 5.599-4.876 8.144-8.114M374.533 168.002c2.545 3.244 5.395 6.16 8.159 8.134 2.482 1.773 4.879 2.676 7.109 2.926 4.089.467 7.618-1.24 10.138-3.757 2.521-2.518 4.242-6.084 3.751-10.195-.26-2.216-1.16-4.591-2.919-7.057-1.957-2.735-4.848-5.54-8.058-8.085M348.916 106.154c-2.528-3.214-5.343-6.088-8.082-8.044-2.49-1.776-4.89-2.684-7.126-2.93-4.08-.464-7.618 1.243-10.122 3.76-2.504 2.518-4.238 6.071-3.757 10.171.256 2.223 1.16 4.605 2.926 7.078 1.974 2.77 4.882 5.606 8.12 8.155M389.711 95.208c-1.129-3.972-4.073-6.596-7.369-7.964-3.297-1.368-7.22-1.583-10.814.415" stroke="#FFF8F1" stroke-linecap="round" stroke-linejoin="round"/><path d="M333.725 179.065c1.125 3.986 4.069 6.611 7.376 7.964.804.337 1.639.596 2.493.773 2.821.635 5.777.216 8.31-1.178M403.693 165.11c3.972-1.128 6.579-4.072 7.964-7.368 1.386-3.297 1.579-7.182-.398-10.769M319.829 109.121c-.835.238-1.64.567-2.403.98a12.664 12.664 0 0 0-5.572 6.399c-1.364 3.297-1.586 7.227.426 10.828M411.148 127.276c2.029-3.615 1.808-7.566.433-10.876-1.375-3.31-3.975-6.212-7.923-7.345M312.263 146.973c-1.995 3.601-1.77 7.524-.402 10.817a12.667 12.667 0 0 0 5.565 6.382c.751.406 1.544.729 2.365.966M371.652 186.562c3.602 1.991 7.525 1.766 10.818.395 3.293-1.371 6.191-3.962 7.331-7.895M351.935 87.673a11.794 11.794 0 0 0-8.345-1.23c-.868.183-1.717.447-2.535.79-3.293 1.365-6.232 3.986-7.351 7.965M303.585 237.291H261.26M343.594 187.812v35.985a13.532 13.532 0 0 1-8.152 12.383" stroke="#FFF8F1" stroke-linecap="round" stroke-linejoin="round"/><path d="M204.031 237.291h-49.687V23.076A13.536 13.536 0 0 1 167.849 9.57h175.762v76.873M154.344 29.956h189.25M370.88 188.76v53.219c0 1.468.187 2.563 1.17 2.563 1.458 0 1.839-3.564 2.237-5.79 6.978-39.323 31.165-48.132 47.918-48.132 1.385 15.904-7.861 29.291-13.692 35.351-6.285 6.534-13.158 10.818-19.987 15.059-4.345 2.694-9.46 5.472-13.719 12.096-4.259 6.624-3.923 12.84-3.923 21.497v95.867M175.394 9.585v20.371" stroke="#FFF8F1" stroke-linecap="round" stroke-linejoin="round"/><path d="M180.336 126.553c.089.005.178.005.266 0a3.186 3.186 0 0 0 0-6.372 3.189 3.189 0 0 0-3.154 3.052 3.19 3.19 0 0 0 2.888 3.306v.014ZM207.414 76.945a3.118 3.118 0 0 0 1.593.43 3.188 3.188 0 0 0 2.252-.933 3.194 3.194 0 0 0 .93-2.253 3.002 3.002 0 0 0-.2-1.101 3.189 3.189 0 0 0-2.173-1.977 3.182 3.182 0 0 0-2.402 5.834ZM239.074 66.443a3.193 3.193 0 0 0 1.641-2.748 3.189 3.189 0 1 0-6.378-.04 3.192 3.192 0 0 0 4.737 2.787v.001ZM261.049 105.943a3.191 3.191 0 0 0-1.412 3.972 3.19 3.19 0 1 0 1.412-3.972v0ZM283.761 74.487a3.185 3.185 0 0 0 4.657-3.795 3.189 3.189 0 0 0-2.149-1.972 3.186 3.186 0 0 0-2.518 5.78l.01-.013ZM317.426 63.327a3.19 3.19 0 0 0 3.024-4.214 3.188 3.188 0 1 0-3.024 4.214ZM207.418 76.945l-25.223 43.673M234.538 64.757l-22.542 8.331M261.052 105.939l-21.978-39.5M283.761 74.487l-19.485 31.528M314.434 61.228l-26.005 9.464M317.426 110.098V63.327M242.184 188.318h75.245v-24.149" stroke="#FFF8F1" stroke-linecap="round" stroke-linejoin="round"/><path d="m180.339 126.553-5.194 61.765h47.966M479.773 263.324c0 5.686-3.321 10.963-8.93 15.157-5.402 4.037-12.916 7.071-21.639 8.497a70.805 70.805 0 0 1-21.559.156c-8.543-1.271-16.085-4.093-21.653-7.964-5.703-3.955-9.349-9.003-9.844-14.571a14.296 14.296 0 0 1-.059-1.337M396.089 263.182c.086-12.93 17.352-23.726 39.61-24.429 23.076-.728 42.782 9.695 44.015 23.235.038.401.056.796.059 1.194M435.987 243.244l.114 1.243M405.892 264.259l-5.717.18" stroke="#FFF8F1" stroke-linecap="round" stroke-linejoin="round"/><path d="M440.616 263.144a.049.049 0 0 1 0 .024c.083.915-1.111 1.694-2.663 1.732-1.551.038-2.881-.651-2.964-1.562-.055-.582.412-1.112 1.157-1.43a4.298 4.298 0 0 1 1.506-.312c1.545-.038 2.857.651 2.964 1.548ZM409.341 254.795l-4.893-1.461M423.916 250.574l12.237 11.344M417.714 244.83l3.127 2.895M436.122 244.76l-.139-1.516-.176-1.981v-.003M469.953 262.22l5.488-.173M464.568 253.033l4.606-1.763M451.86 246.887l2.756-3.183M466.261 271.694l4.9 1.461M454.609 278.481l3.449 3.109M439.401 280.821l.398 4.402M411.47 273.286l-5.038 1.929M424.154 279.128l-3.161 3.657M440.62 263.141l6.184-.191M411.526 264.055l23.467-.738M463.747 293.924a39.235 39.235 0 0 0 7.095-4.155c5.129-3.837 8.356-8.612 8.803-13.851.166-1.946.128-3.791.128-5.866v-6.87M396.089 263.182v6.843c0 2.077-.038 3.919.128 5.866.284 3.331 1.686 6.464 3.982 9.297a27.97 27.97 0 0 0 5.793 5.267c5.558 3.864 13.103 6.686 21.653 7.964 2.665.394 5.351.632 8.044.713 4.519.149 9.041-.14 13.505-.862a56.809 56.809 0 0 0 14.543-4.335M405.992 290.455V279.184M427.645 298.409v-11.275M449.204 298.256V286.978M470.846 289.752V278.481" stroke="#FFF8F1" stroke-linecap="round" stroke-linejoin="round"/><path d="M458.072 308.52c-5.284 1.278-12.12 1.974-19.8 1.936-3.781 0-7.77-.215-11.884-.603a133.595 133.595 0 0 1-11.358-1.562c-8.072-1.478-15.056-3.587-20.163-6.007-5.859-2.771-9.242-5.956-8.952-9.056.347-3.677 5.825-6.506 14.284-8.04h.024M469.243 301.248c-.395 3.158-4.575 5.669-11.171 7.272M463.744 293.924c3.712 2.296 5.741 4.779 5.509 7.206" stroke="#FFF8F1" stroke-linecap="round" stroke-linejoin="round"/><path d="M393.783 313.714c-5.852-2.846-9.218-6.209-8.886-9.72.218-2.296.693-7.49 1.018-10.766M456.988 319.957c-5.287 1.337-12.119 2.012-19.803 1.957a136.228 136.228 0 0 1-11.884-.617 138.324 138.324 0 0 1-11.358-1.544c-8.075-1.458-15.063-3.549-20.16-6.032M469.257 301.13v.118c-.309 3.283-.797 8.38-1.008 10.652-.346 3.632-4.564 6.371-11.247 8.054M393.783 313.717v-.003l1.084-11.431M413.946 319.75l1.084-11.459" stroke="#FFF8F1" stroke-linecap="round" stroke-linejoin="round"/><path d="M437.188 321.917v-.003l1.088-11.458M456.988 319.954v-.004l1.084-11.43v-.004M473.777 360.755h-84.368v-11.682h84.368v11.682Z" stroke="#FFF8F1" stroke-linecap="round" stroke-linejoin="round"/><path d="M473.777 373.622h-84.368V348.96h84.368v24.662ZM453.996 327.503l14.149 1.17-.997 12.12-14.149-1.171-17.947-1.482-18.98-1.565-17.944-1.482-15.177-1.254 1.001-12.119 15.174 1.253 17.947 1.482 18.979 1.566 17.944 1.482Z" stroke="#FFF8F1" stroke-linecap="round" stroke-linejoin="round"/><path d="M398.128 335.096v-.003l.998-12.12M416.072 336.575l1.001-12.12M435.052 338.147v-.007l1-12.116M452.999 339.622l.997-12.119" stroke="#FFF8F1" stroke-linecap="round" stroke-linejoin="round"/><path d="M444.252 226.858v-12.033M457.147 228.413l4.502-19.305M469.786 232.398l6.32-11.17M478.706 240.186l13.851-14.803M485.833 250.346l11.6-7.127M488.485 262.912l20.302-6.06M489.351 274.599h13.203" stroke="#1E1F1D" stroke-linecap="round" stroke-linejoin="round"/><path d="M389.409 373.622V348.96M404.773 373.714v-12.162M422.783 373.714v-12.162M441.825 373.717v-12.165M459.834 373.714v-12.162M377.407 242.004c12.75-22.508 35.462-45.573 44.798-52.675M216.168 389.31a98.78 98.78 0 0 0 7.352-13.775" stroke="#FFF8F1" stroke-linecap="round" stroke-linejoin="round"/><path d="M136.639 394.502h16.102a98.728 98.728 0 0 0 7.368-13.758h-16.105a98.444 98.444 0 0 1-7.365 13.758ZM144.004 380.727h16.116a95.662 95.662 0 0 0 4.789-13.851h-16.113a95.196 95.196 0 0 1-4.792 13.851ZM148.797 366.859h16.119a118.118 118.118 0 0 0 2.732-13.872h-16.112a117.287 117.287 0 0 1-2.739 13.872Z" fill="#1E1F1D"/><path d="M151.535 352.987h16.113c.623-4.429 1.038-9.034 1.333-13.868h-16.116c-.284 4.827-.71 9.439-1.33 13.868ZM152.741 394.502h16.167a98.772 98.772 0 0 0 7.379-13.775H160.12a98.878 98.878 0 0 1-7.379 13.775ZM152.865 339.119h80.831c.367-6.164.499-12.698.499-19.721h-80.828c0 7.023-.135 13.557-.502 19.721ZM160.12 380.727h16.167a95.559 95.559 0 0 0 4.793-13.851h-16.171a95.662 95.662 0 0 1-4.789 13.851Z" fill="#1E1F1D"/><path d="M164.916 366.859h16.164a117.264 117.264 0 0 0 2.732-13.872h-16.164a118.118 118.118 0 0 1-2.732 13.872Z" fill="#1E1F1D"/><path d="M167.648 352.987h16.164c.623-4.429 1.039-9.034 1.336-13.868h-16.167c-.284 4.827-.71 9.439-1.333 13.868ZM168.918 394.502h16.216a98.773 98.773 0 0 0 7.366-13.758h-16.213a98.629 98.629 0 0 1-7.369 13.758ZM176.287 380.727h16.216a95.559 95.559 0 0 0 4.793-13.851h-16.22a95.463 95.463 0 0 1-4.789 13.851Z" fill="#1E1F1D"/><path d="M181.08 366.859h16.212a116.445 116.445 0 0 0 2.739-13.872h-16.219a117.264 117.264 0 0 1-2.732 13.872Z" fill="#1E1F1D"/><path d="M183.812 352.987h16.223c.616-4.429 1.039-9.031 1.329-13.851h-16.216c-.287 4.81-.713 9.422-1.336 13.851ZM185.135 394.502h16.164a98.462 98.462 0 0 0 7.368-13.758H192.5a98.872 98.872 0 0 1-7.365 13.758ZM192.5 380.727h16.167a95.962 95.962 0 0 0 4.793-13.851h-16.168a95.554 95.554 0 0 1-4.792 13.851Z" fill="#1E1F1D"/><path d="M197.292 366.859h16.168a116.432 116.432 0 0 0 2.735-13.872h-16.164a116.445 116.445 0 0 1-2.739 13.872ZM201.368 339.119c-.288 4.848-.713 9.436-1.33 13.851h16.161c.623-4.429 1.039-9.035 1.333-13.869l-16.164.018ZM201.299 394.502h16.167a98.78 98.78 0 0 0 7.352-13.775h-16.151a98.385 98.385 0 0 1-7.368 13.775ZM208.667 380.727h16.164a95.081 95.081 0 0 0 4.793-13.851H213.46a95.84 95.84 0 0 1-4.793 13.851Z" fill="#1E1F1D"/><path d="M213.46 366.859h16.153a117.909 117.909 0 0 0 2.743-13.872h-16.171a116.64 116.64 0 0 1-2.725 13.872Z" fill="#1E1F1D"/><path d="M216.195 352.987h16.189c.616-4.429 1.038-9.034 1.329-13.868h-16.185c-.283 4.827-.709 9.439-1.333 13.868Z" fill="#1E1F1D"/><path d="M224.831 380.727a95.081 95.081 0 0 0 4.793-13.851 117.702 117.702 0 0 0 2.742-13.872c.617-4.429 1.039-9.034 1.33-13.868.367-6.164.499-12.698.499-19.72h-80.828c0 7.022-.135 13.556-.502 19.72-.284 4.848-.71 9.439-1.329 13.868a117.049 117.049 0 0 1-2.74 13.872 95.077 95.077 0 0 1-4.792 13.851 98.367 98.367 0 0 1-7.365 13.775" stroke="#FFF8F1" stroke-linecap="round" stroke-linejoin="round"/><path d="M217.528 339.119c-.283 4.847-.709 9.439-1.333 13.868a116.472 116.472 0 0 1-2.735 13.872 95.883 95.883 0 0 1-4.793 13.851 98.42 98.42 0 0 1-7.368 13.792M224.568 380.873c-2.087 4.786-4.321 9.234-7.139 13.629M200.031 352.987a116.445 116.445 0 0 1-2.739 13.872 95.596 95.596 0 0 1-4.792 13.851 98.878 98.878 0 0 1-7.365 13.792M201.364 339.122c-.287 4.848-.713 9.436-1.329 13.851M181.076 366.859a95.596 95.596 0 0 1-4.792 13.851 98.779 98.779 0 0 1-7.366 13.792M185.148 339.119c-.287 4.847-.713 9.439-1.336 13.868a117.264 117.264 0 0 1-2.732 13.872M164.909 366.859a95.703 95.703 0 0 1-4.789 13.851 98.905 98.905 0 0 1-7.379 13.792M168.981 339.119c-.284 4.847-.693 9.439-1.333 13.868a118.118 118.118 0 0 1-2.732 13.872M152.869 339.115h80.827M151.539 352.987h80.827M148.803 366.855H229.631M144.004 380.727H224.835M227.342 333.291a5.263 5.263 0 0 1-4.335-2.189c-.693-.948-2.127-3.23-2.888-4.228-.911-1.187-2.504-1.797-4.024-1.797s-3.117.61-4.027 1.797c-.762.998-2.203 3.28-2.885 4.228a5.384 5.384 0 0 1-4.339 2.189 5.391 5.391 0 0 1-4.338-2.189c-.693-.948-2.123-3.23-2.888-4.228-.908-1.187-2.5-1.797-4.021-1.797-1.52 0-3.116.61-4.023 1.797-.766.998-2.206 3.28-2.892 4.228a5.384 5.384 0 0 1-8.657 0c-.692-.948-2.129-3.23-2.891-4.228-.907-1.187-2.503-1.797-4.024-1.797-1.52 0-3.116.61-4.02 1.797-.769.998-2.206 3.28-2.891 4.228a5.264 5.264 0 0 1-4.336 2.189" stroke="#FFF8F1" stroke-linecap="round" stroke-linejoin="round"/><path d="m211.413 363.753-4.055-3.792-4.158-3.889" stroke="#FFF8F1" stroke-linecap="round" stroke-linejoin="round"/><path d="m212.698 356.419-5.34 3.542-5.571 3.698M352.666 188.826v84.391c0 1.471-.19 2.562-1.17 2.562-1.458 0-1.843-3.563-2.237-5.79-2.618-14.744-7.656-25.198-13.817-32.511-10.263-12.172-23.636-15.614-34.101-15.61a39.995 39.995 0 0 0 2.248 16.721 53.277 53.277 0 0 0 11.444 18.626c6.285 6.534 13.158 10.818 19.987 15.06 4.342 2.701 9.46 5.471 13.712 12.095 4.253 6.624 3.927 12.84 3.927 21.497v62.675" stroke="#FFF8F1" stroke-linecap="round" stroke-linejoin="round"/><path d="M346.139 274.539c-12.757-22.507-35.466-45.573-44.798-52.671" stroke="#FFF8F1" stroke-linecap="round" stroke-linejoin="round"/><path d="M74.922 287.528c-.146-.301-.291-.588-.433-.869-2.933-5.862-7.403-6.711-10.89-6.804-3.037-.087-21.611-.326-26.91 0-6.104.37-10.197 4.211-12.154 9.696-.98 2.742-8.386 22.196-10.931 33.914a.195.195 0 0 0 0 .062c-2.224 12.317 1.783 20.721 10.571 27.051 9.332 6.718 22.67 16.112 27.806 20.056 7.836 6.015 10.87 11.677 11.638 14.544h48.309c0-23.135-1.122-31.747-9.349-43.049-8.352-11.462-23.2-14.717-28.135-15.981-4.609-1.163-20.344-4.512-24.825-6.381-6.54-2.746-4.446-8.709-4.13-9.966.315-1.257 1.46-5.707 2.077-7.435.616-1.728 2.195-2.019 2.985-2.098 1.233-.121 4.869-.246 6.808-.256 2.077-.018 2.67.834 3.244 1.624.575.789 3.262 6.212 6.739 10.443 3.366 4.093 8.743 3.75 11.95 1.922 3.462-1.981 4.09-4.948 3.76-7.383a5.484 5.484 0 0 1-7.255 1.543 5.476 5.476 0 0 1-1.91-1.889c-1.348-2.077-3.069-5.194-2.383-9.249.571-3.4 3.463-4.765 5.79-4.46a165.355 165.355 0 0 0-2.372-5.035Z" fill="#1E1F1D"/><path d="M13.86 322.17c-.094.439-.18.879-.256 1.309 2.545-11.718 9.951-31.165 10.931-33.915 1.957-5.502 6.05-9.349 12.155-9.695 5.298-.326 23.872-.087 26.909 0 3.487.093 7.964.942 10.89 6.804.142.281.287.568.433.869.211-3.085 2.656-6.056 6.821-5.454A219.055 219.055 0 0 0 78.41 275a81.06 81.06 0 0 0-2.078-3.927c-3.404-5.82-10-6.385-12.722-6.492-2.722-.108-20.98-.88-27.54-.346-7.271.599-11.485 4.951-12.787 9.751-.928 3.428-7.24 37.522-9.16 46.979-.11.46-.19.879-.262 1.205Z" fill="#1E1F1D"/><path d="M18.936 286.389c-1.994 13.619-4.457 31.005-4.824 34.565 1.919-9.457 8.231-43.551 9.16-46.979 1.301-4.799 5.512-9.152 12.787-9.751 6.559-.544 24.818.232 27.54.346 2.721.115 9.318.672 12.722 6.493.63 1.08 1.34 2.424 2.077 3.927 1.095-2.566 4.03-3.989 6.438-3.345-2.376-4.924-5.101-10.288-6.618-12.812a13.529 13.529 0 0 0-3.334-3.761c-2.473-1.901-5.662-2.936-9.52-3.099-4.255-.173-11.143-.315-19.502-.042-2.583.09-5.308.215-8.14.388-12.089.758-15.164 11.372-16.276 17.473-.311 1.732-1.33 8.477-2.513 16.566a.04.04 0 0 0 .003.031Z" fill="#1E1F1D"/><path d="M18.943 286.361c1.184-8.089 2.202-14.841 2.514-16.565 1.111-6.102 4.186-16.715 16.275-17.473a307.22 307.22 0 0 1 8.14-.388c.08-3.574 2.12-29.51 1.465-40.964a13.804 13.804 0 0 0-1.73-6.05 9.862 9.862 0 0 0-2.446-2.926c-2.455-1.908-6.281-2.722-9.588-1.783-2.503.713-4.37 1.852-5.384 3.878 3.362-.197 5.665.745 6.104 4.398.606 5.024-.516 9.571-2.199 11.995-1.655 2.368-3.514 2.863-6.437 2.69h-.038c-2.406 22.293-6.337 59.4-6.676 63.188Z" fill="#1E1F1D"/><path d="M25.62 223.173h.037c2.923.173 4.782-.322 6.438-2.69 1.683-2.424 2.804-6.971 2.198-11.995-.44-3.653-2.742-4.595-6.104-4.398a8.038 8.038 0 0 0-.738 2.424c-.09.582-.828 7.32-1.832 16.659ZM84.85 271.634c1.939 4.007 3.653 7.726 4.304 9.35.416.983.777 1.989 1.08 3.012.45 1.597.661 3.321.076 4.9-.98 2.656-3.646 3.331-4.114 3.428.208.492.347.835.413.987.229.537.402 1.096.516 1.669a9.12 9.12 0 0 1-.693 5.696 6.237 6.237 0 0 1-4.027 3.429c.124.325.221.588.287.782.183.556.314 1.127.392 1.707.328 2.424-.291 5.402-3.761 7.383-3.207 1.828-8.584 2.171-11.95-1.922-3.463-4.231-6.164-9.661-6.739-10.444-.574-.782-1.156-1.641-3.244-1.624-1.94 0-5.575.135-6.808.257-.79.079-2.355.37-2.985 2.098-.63 1.728-1.773 6.178-2.077 7.435-.305 1.256-2.424 7.219 4.13 9.965 4.464 1.874 20.216 5.222 24.832 6.406 4.945 1.264 19.783 4.502 28.135 15.981 8.231 11.302 9.349 19.914 9.349 43.049h16.58c3.362-11.358 5.72-26.39 4.249-39.358-.693-6.073-2.047-11.628-4.848-18.664-3.293-8.283-7.947-14.831-10.288-18.114-2.424-3.407-6.711-9.179-9.817-15.277-3.954-7.75-5.731-16.022-7.109-22.906-1.34-6.728-3.203-22.581-3.84-26.213-.592-3.394-1.184-5.541-2.77-7.916a8.857 8.857 0 0 0-6.58-3.989 11.954 11.954 0 0 0-1.489-.09c-4.45 0-7.503 2.209-9.176 6.077-1.88 4.339-2.05 8.411-1.97 16.327a13.523 13.523 0 0 1 3.32 3.767c1.517 2.511 4.243 7.875 6.618 12.812h.003Z" fill="#1E1F1D"/><path d="M71.514 297.002c-.692 4.045 1.04 7.168 2.383 9.249a5.488 5.488 0 0 0 9.166.347 9.4 9.4 0 0 0-.392-1.707 22.46 22.46 0 0 0-.287-.783c-.523-1.354-1.54-3.74-2.739-6.441a488.74 488.74 0 0 0-2.337-5.142c-2.327-.287-5.222 1.077-5.794 4.477Z" fill="#1E1F1D"/><path d="M74.922 287.525a224.186 224.186 0 0 1 2.382 5.014c.797 1.731 1.6 3.494 2.337 5.142 2.715.807 6.306-.346 7.477-2.684a8.445 8.445 0 0 0-.516-1.669c-.063-.152-.205-.495-.413-.986a511.035 511.035 0 0 0-2.34-5.503 391.929 391.929 0 0 0-2.106-4.768c-4.165-.602-6.61 2.376-6.821 5.454Z" fill="#1E1F1D"/><path d="M78.409 274.979c1.08 2.175 2.24 4.665 3.334 7.089a436.028 436.028 0 0 1 2.106 4.768c2.853.488 5.602-.928 6.382-2.826a28.196 28.196 0 0 0-1.08-3.012c-.652-1.631-2.366-5.35-4.305-9.35-2.407-.658-5.343.766-6.437 3.331ZM87.121 295.001c-1.17 2.327-4.761 3.49-7.476 2.684 1.198 2.7 2.216 5.086 2.739 6.44a6.234 6.234 0 0 0 4.027-3.428 9.12 9.12 0 0 0 .71-5.696Z" fill="#1E1F1D"/><path d="M90.234 284.014c-.78 1.897-3.528 3.314-6.382 2.825a513.117 513.117 0 0 1 2.341 5.503c.468-.097 3.134-.773 4.114-3.429.588-1.579.377-3.303-.073-4.899Z" fill="#1E1F1D"/><path d="M77.3 292.542c.797 1.732 1.6 3.494 2.338 5.143 1.198 2.7 2.216 5.086 2.739 6.44.125.326.222.589.287.783.184.556.315 1.127.392 1.707.329 2.424-.291 5.402-3.76 7.383-3.207 1.828-8.585 2.171-11.95-1.922-3.464-4.232-6.164-9.661-6.74-10.444-.574-.783-1.156-1.641-3.244-1.624-1.939 0-5.575.135-6.808.256-.79.08-2.354.371-2.985 2.099-.63 1.728-1.772 6.177-2.077 7.434-.305 1.257-2.424 7.22 4.131 9.966 4.463 1.873 20.215 5.222 24.831 6.406 4.945 1.264 19.783 4.502 28.135 15.981 8.231 11.302 9.349 19.914 9.349 43.048M74.922 287.528a228.476 228.476 0 0 1 2.382 5.014" stroke="#FFF8F1" stroke-linecap="round" stroke-linejoin="round"/><path d="M13.604 323.478c2.545-11.717 9.951-31.164 10.931-33.914 1.957-5.502 6.05-9.349 12.155-9.695 5.298-.326 23.872-.087 26.909 0 3.487.093 7.964.942 10.89 6.804.142.28.287.568.433.869M87.121 295.001a9.12 9.12 0 0 1-.693 5.696 6.238 6.238 0 0 1-4.027 3.428M83.852 286.839a513.117 513.117 0 0 1 2.341 5.503c.208.491.346.834.412.986.23.537.402 1.097.516 1.669M78.409 274.983a217.64 217.64 0 0 1 3.334 7.088 444.681 444.681 0 0 1 2.106 4.768" stroke="#FFF8F1" stroke-linecap="round" stroke-linejoin="round"/><path d="M14.112 320.954c1.919-9.457 8.231-43.551 9.16-46.979 1.301-4.799 5.512-9.152 12.787-9.751 6.559-.544 24.818.232 27.54.346 2.721.115 9.318.672 12.722 6.493.63 1.08 1.34 2.424 2.077 3.927M74.894 255.076c-.08-7.916.09-11.989 1.97-16.327 1.673-3.868 4.727-6.077 9.177-6.077.497-.001.995.029 1.489.09a8.846 8.846 0 0 1 6.58 3.989c1.595 2.379 2.187 4.522 2.769 7.915.637 3.633 2.5 19.485 3.84 26.213 1.385 6.884 3.155 15.157 7.109 22.906 3.117 6.098 7.383 11.871 9.817 15.278 2.341 3.283 6.995 9.831 10.288 18.114 2.791 7.036 4.155 12.59 4.848 18.664 1.471 12.968-.887 28-4.249 39.357" stroke="#FFF8F1" stroke-linecap="round" stroke-linejoin="round"/><path d="M18.943 286.361c.346-3.788 4.27-40.895 6.676-63.188 1.004-9.349 1.732-16.077 1.832-16.673.116-.842.365-1.66.738-2.424 1.014-2.025 2.88-3.165 5.384-3.878 3.307-.938 7.133-.125 9.588 1.783a9.862 9.862 0 0 1 2.445 2.926 13.808 13.808 0 0 1 1.731 6.05c.655 11.454-1.385 37.397-1.464 40.964M77.3 292.543c-2.323-.305-5.218 1.059-5.79 4.46-.692 4.044 1.04 7.167 2.383 9.249a5.493 5.493 0 0 0 4.49 2.644 5.491 5.491 0 0 0 4.676-2.298M79.645 297.685c2.715.806 6.306-.347 7.476-2.684" stroke="#FFF8F1" stroke-linecap="round" stroke-linejoin="round"/><path d="M25.65 223.173c2.923.173 4.782-.322 6.438-2.69 1.682-2.424 2.804-6.971 2.198-11.995-.44-3.653-2.742-4.595-6.104-4.398M90.234 284.014c.45 1.596.662 3.32.076 4.899-.98 2.656-3.646 3.332-4.114 3.429M84.85 271.634c1.939 4.007 3.653 7.726 4.304 9.35.416.983.777 1.989 1.08 3.012M14.112 320.954c.367-3.559 2.83-20.946 4.824-34.565a.043.043 0 0 1 0-.028c1.184-8.089 2.202-14.841 2.514-16.565 1.111-6.102 4.186-16.715 16.275-17.473 2.832-.173 5.558-.298 8.14-.388 8.36-.274 15.237-.132 19.503.041 3.858.163 7.047 1.199 9.519 3.1a13.529 13.529 0 0 1 3.342 3.746c1.516 2.511 4.242 7.875 6.617 12.812" stroke="#FFF8F1" stroke-linecap="round" stroke-linejoin="round"/><path d="M78.409 274.983c1.094-2.566 4.03-3.989 6.437-3.345M90.234 284.011v-.004M83.849 286.839c2.853.489 5.602-.928 6.382-2.825M74.922 287.532c.211-3.085 2.656-6.056 6.821-5.454" stroke="#FFF8F1" stroke-linecap="round" stroke-linejoin="round"/></g><defs><clipPath id="a"><path fill="#fff" d="M0 0h500v400H0z"/></clipPath></defs></svg>