<svg width="118" height="60" viewBox="0 0 118 60" fill="none" xmlns="http://www.w3.org/2000/svg">
<g clip-path="url(#clip0_431_3572)">
<path d="M112.032 37.9839C112.032 36.2529 113.438 34.8484 115.168 34.8484C116.899 34.8484 118.303 36.2529 118.303 37.9839C118.303 39.715 116.899 41.1186 115.168 41.1186C113.438 41.1186 112.032 39.715 112.032 37.9839Z" fill="#1D1E1C"/>
<path d="M12.0342 29.6799C12.0342 27.6939 11.6505 26.2205 10.8829 25.2606C10.1144 24.3016 8.95029 23.8226 7.38527 23.8226H5.72045V35.9674H6.99419C8.73253 35.9674 10.0064 35.4521 10.8175 34.4178C11.6277 33.3853 12.0342 31.8057 12.0342 29.6799V29.6799ZM17.9714 29.4731C17.9714 33.0913 16.9987 35.8794 15.0535 37.8364C13.1083 39.7943 10.3739 40.7732 6.84906 40.7732H0V19.092H7.32715C10.7258 19.092 13.3496 19.9821 15.1987 21.7612C17.0468 23.5413 17.9714 26.1107 17.9714 29.4731" fill="#1D1E1C"/>
<path d="M36.9429 40.7731H42.3929V19.0012H36.9429V40.7731Z" fill="#1D1E1C"/>
<path d="M50.0498 32.6522C50.0498 34.0403 50.2312 35.0991 50.5933 35.8267C50.9562 36.5553 51.564 36.9191 52.4186 36.9191C53.2642 36.9191 53.8621 36.5553 54.2105 35.8267C54.5589 35.0991 54.7322 34.0403 54.7322 32.6522C54.7322 31.2713 54.5561 30.2297 54.2032 29.5266C53.8494 28.8216 53.2461 28.4687 52.3906 28.4687C51.5541 28.4687 50.9562 28.8198 50.5933 29.5184C50.2312 30.2179 50.0498 31.2622 50.0498 32.6522ZM60.2793 32.6522C60.2793 35.2969 59.5861 37.36 58.1961 38.8389C56.8071 40.3187 54.8628 41.059 52.3633 41.059C49.9663 41.059 48.0582 40.3023 46.642 38.789C45.224 37.2756 44.5154 35.2307 44.5154 32.6522C44.5154 30.0156 45.2095 27.967 46.5995 26.5063C47.9893 25.0455 49.9381 24.3152 52.4477 24.3152C53.9983 24.3152 55.3701 24.6536 56.5586 25.3295C57.748 26.0055 58.6662 26.9735 59.3113 28.2346C59.9572 29.4939 60.2793 30.9674 60.2793 32.6522Z" fill="#1D1E1C"/>
<path d="M62.4434 40.7728H67.8943V32.4404V24.6006H62.4434V40.7728Z" fill="#1D1E1C"/>
<path d="M62.4434 22.6445H67.8943V19H62.4434V22.6445Z" fill="#1D1E1C"/>
<path d="M78.9377 36.6481C79.6736 36.6481 80.5499 36.4612 81.5724 36.0901V40.1592C80.8375 40.4822 80.139 40.7136 79.4748 40.8506C78.8107 40.9894 78.0313 41.0583 77.1395 41.0583C75.3095 41.0583 73.9903 40.5984 73.1801 39.6802C72.3735 38.762 71.9689 37.3521 71.9689 35.4496V28.7829H70.0601V24.6022H71.9689V20.4722L77.4616 19.5168V24.6022H80.9392V28.7829H77.4616V35.0776C77.4616 36.1246 77.9542 36.6481 78.9377 36.6481" fill="#1D1E1C"/>
<path d="M91.5529 36.6481C92.2887 36.6481 93.1652 36.4612 94.1877 36.0901V40.1592C93.4537 40.4822 92.7541 40.7136 92.09 40.8506C91.425 40.9894 90.6483 41.0583 89.7546 41.0583C87.9247 41.0583 86.6056 40.5984 85.7972 39.6802C84.9888 38.762 84.5842 37.3521 84.5842 35.4496V28.7829H82.6743V24.6022H84.5842V20.4096L90.0759 19.5168V24.6022H93.5553V28.7829H90.0759V35.0776C90.0759 36.1246 90.5685 36.6481 91.5529 36.6481" fill="#1D1E1C"/>
<path d="M101.066 30.682C101.14 29.7965 101.394 29.1478 101.825 28.7332C102.259 28.3195 102.794 28.1126 103.435 28.1126C104.133 28.1126 104.689 28.3449 105.101 28.813C105.515 29.2785 105.731 29.9018 105.748 30.682H101.066V30.682ZM108.752 26.2219C107.457 24.9517 105.619 24.3157 103.241 24.3157C100.741 24.3157 98.8177 25.046 97.4695 26.5067C96.1222 27.9675 95.448 30.0633 95.448 32.7942C95.448 35.4389 96.1766 37.4784 97.6301 38.9101C99.0844 40.3418 101.127 41.0586 103.757 41.0586C105.02 41.0586 106.107 40.9724 107.018 40.8009C107.923 40.6313 108.8 40.3246 109.65 39.8818L108.812 36.2373C108.194 36.4895 107.606 36.6837 107.051 36.8116C106.249 36.9976 105.369 37.0911 104.411 37.0911C103.361 37.0911 102.531 36.8343 101.923 36.3208C101.315 35.8063 100.992 35.0969 100.954 34.1932H110.697V31.71C110.697 29.3211 110.049 27.4912 108.752 26.2219Z" fill="#1D1E1C"/>
<path d="M25.2048 30.682C25.2792 29.7965 25.5323 29.1478 25.9641 28.7332C26.3969 28.3195 26.9332 28.1126 27.5747 28.1126C28.2715 28.1126 28.8266 28.3449 29.2395 28.813C29.6541 29.2785 29.8691 29.9018 29.8882 30.682H25.2048V30.682ZM32.8922 26.2219C31.5957 24.9517 29.7584 24.3157 27.3796 24.3157C24.879 24.3157 22.9565 25.046 21.6091 26.5067C20.2619 27.9675 19.5869 30.0633 19.5869 32.7942C19.5869 35.4389 20.3146 37.4784 21.7699 38.9101C23.2233 40.3418 25.2655 41.0586 27.8958 41.0586C29.1587 41.0586 30.2456 40.9724 31.1565 40.8009C32.0619 40.6313 32.9385 40.3246 33.7895 39.8818L32.9512 36.2373C32.3333 36.4895 31.7453 36.6837 31.191 36.8116C30.3872 36.9976 29.508 37.0911 28.5498 37.0911C27.5001 37.0911 26.6701 36.8343 26.0623 36.3208C25.4534 35.8063 25.1305 35.0969 25.0933 34.1932H34.8356V31.71C34.8356 29.3211 34.1878 27.4912 32.8922 26.2219" fill="#1D1E1C"/>
</g>
<defs>
<clipPath id="clip0_431_3572">
<rect width="118" height="60" fill="white"/>
</clipPath>
</defs>
</svg>
