<svg width="48" height="60" viewBox="0 0 48 60" fill="none" xmlns="http://www.w3.org/2000/svg">
<path d="M24 51.792C12.048 51.792 2.256 41.952 2.256 30C2.256 27.312 2.736 24.768 3.648 22.368L16.368 47.952C16.512 48.288 16.752 48.576 17.136 48.576C17.52 48.576 17.76 48.288 17.904 47.952L23.76 34.848C23.808 34.704 23.904 34.56 24.048 34.56C24.192 34.56 24.24 34.704 24.336 34.848L30.192 47.952C30.336 48.288 30.576 48.576 30.96 48.576C31.344 48.576 31.584 48.288 31.728 47.952L44.448 22.368C45.36 24.768 45.84 27.312 45.84 30C45.744 41.952 35.952 51.792 24 51.792ZM24 25.056C23.856 25.056 23.808 24.912 23.712 24.768L16.896 9.408C19.104 8.592 21.504 8.16 24 8.16C26.496 8.16 28.896 8.592 31.104 9.408L24.288 24.768C24.192 24.96 24.144 25.056 24 25.056ZM17.04 40.848C16.896 40.848 16.848 40.704 16.752 40.56L5.712 18.288C7.68 15.264 10.32 12.72 13.536 10.944L21.504 28.656C21.6 28.944 21.84 29.04 22.08 29.04H25.92C26.208 29.04 26.4 28.992 26.544 28.656L34.512 10.944C37.68 12.72 40.368 15.264 42.336 18.288L31.2 40.56C31.152 40.704 31.056 40.848 30.912 40.848C30.768 40.848 30.72 40.704 30.624 40.56L26.448 31.056C26.304 30.72 26.112 30.672 25.824 30.672H21.984C21.696 30.672 21.504 30.72 21.36 31.056L17.328 40.56C17.28 40.704 17.184 40.848 17.04 40.848ZM24 54C37.296 54 48 43.296 48 30C48 16.704 37.296 6 24 6C10.704 6 0 16.704 0 30C0 43.296 10.704 54 24 54Z" fill="#1D1E1C"/>
</svg>
