<svg width="121" height="60" viewBox="0 0 121 60" fill="none" xmlns="http://www.w3.org/2000/svg">
<g clip-path="url(#clip0_431_3589)">
<path d="M85.7568 8H92.1001V14.1912H85.7568V8Z" fill="#1D1E1C"/>
<path d="M68.2534 24.6622C66.975 25.5238 65.6038 26.9644 65.5439 29.5792C65.5139 30.9298 65.7746 32.1668 66.1208 32.9348C66.3825 33.5128 66.7496 34.2462 67.2748 34.717C68.2189 35.5641 69.1612 36.2376 70.9966 36.6048C71.46 36.6975 73.051 36.8047 73.5126 36.8147C74.523 36.8347 75.6952 36.5839 76.5675 36.3648C76.9328 36.2739 77.9777 35.9795 79.0354 34.9333L79.0236 36.5984H85.4077C85.4077 36.5984 85.2577 36.2485 85.1578 36.0331C84.9624 35.6095 85.0533 35.7159 84.8906 35.386C84.8579 35.3196 84.8043 35.1742 84.7562 34.897C84.718 34.6834 84.7207 34.727 84.7026 34.3571C84.6662 33.6073 84.7126 32.9802 84.7144 32.8793L84.6826 20.9931C84.6826 19.5726 84.4908 18.5465 83.9375 17.6003C83.3968 16.676 82.4146 15.9844 81.7667 15.6254C80.0221 14.6602 77.7197 14.4275 75.4399 14.4275C73.9433 14.4275 72.0206 14.5211 70.4651 15.2355C69.2093 15.8117 68.2807 16.5988 67.7064 17.3531C67.0785 18.1775 66.8132 18.8482 66.646 19.5662C66.5497 19.9779 66.4043 20.5742 66.3843 21.034C66.3625 21.5057 66.3216 21.7584 66.3316 22.3446H72.0434C72.0688 21.802 72.1188 21.1222 72.2024 20.7714C72.3223 20.257 72.6522 19.9034 72.7603 19.758C73.2173 19.1491 73.9179 18.92 75.6834 18.88C77.0245 18.85 77.9732 19.2727 78.4384 19.7753C78.9654 20.3433 78.9136 20.7868 78.9136 21.6521C78.9136 22.3628 78.78 22.6473 78.0795 23.0735C77.6742 23.3198 76.374 23.3626 75.399 23.3935L72.7412 23.4289C71.4318 23.4289 69.7463 23.6579 68.2534 24.6622ZM78.7301 30.279C78.5647 30.6744 78.5629 30.7971 78.4384 30.9425C78.2648 31.1452 77.9868 31.4024 77.5997 31.6242C76.7029 32.1404 75.5753 32.2531 74.3495 32.2531C73.4981 32.2531 72.5159 32.1486 71.8353 31.6242C71.3446 31.247 71.1347 30.5344 71.1965 29.5819C71.2547 28.6858 71.7053 28.1668 72.2024 27.9542C72.5686 27.7969 73.1928 27.7224 74.3495 27.6924H76.6574C77.358 27.6924 77.438 27.6942 77.955 27.5724C78.4229 27.4625 78.6601 27.3607 79.0036 27.1416V28.8467C78.9436 29.3038 78.9354 29.7864 78.7301 30.279Z" fill="#1D1E1C"/>
<path d="M85.7449 15.1802H92.099V36.5994H85.7449V15.1802Z" fill="#1D1E1C"/>
<path d="M2.18718 42.6815C2.27986 41.1255 3.67281 40.6565 5.02941 40.6565C6.23427 40.6565 7.68446 40.9264 7.68446 42.377V45.5253C7.68446 46.0752 7.74352 46.625 7.89526 46.8704H6.21064C6.15249 46.6832 6.10524 46.4842 6.09343 46.286C5.56733 46.835 4.79498 47.0349 4.05807 47.0349C2.91228 47.0349 2 46.4605 2 45.2208C2 43.8512 3.02858 43.524 4.05807 43.384C5.07575 43.2322 6.02346 43.2668 6.02346 42.5878C6.02346 41.8744 5.5328 41.7689 4.94763 41.7689C4.31522 41.7689 3.90633 42.0262 3.84818 42.6815H2.18718ZM6.02346 43.9102C5.74269 44.1556 5.15844 44.1674 4.64324 44.2611C4.12804 44.3656 3.661 44.5419 3.661 45.1508C3.661 45.7707 4.13985 45.9234 4.67867 45.9234C5.97712 45.9234 6.02346 44.8927 6.02346 44.5301V43.9102Z" fill="#1D1E1C"/>
<path d="M9.0166 40.821H10.584V41.6399H10.6067C11.0401 41.02 11.6717 40.6565 12.4558 40.6565C13.2154 40.6565 13.8942 40.9382 14.2222 41.6635C14.5729 41.1373 15.2044 40.6565 16.0468 40.6565C17.3334 40.6565 18.2575 41.2536 18.2575 42.8214V46.8704H16.5965V43.4422C16.5965 42.6351 16.5265 41.968 15.5788 41.968C14.6429 41.968 14.4675 42.7396 14.4675 43.5003V46.8704H12.8065V43.4767C12.8065 42.7751 12.8529 41.968 11.8007 41.968C11.4727 41.968 10.6776 42.1788 10.6776 43.3604V46.8704H9.0166V40.821Z" fill="#1D1E1C"/>
<path d="M19.446 40.821H21.0253V41.6635H21.0598C21.4814 40.9846 22.2065 40.6565 22.9089 40.6565C24.6744 40.6565 25.1196 41.6517 25.1196 43.1495V46.8704H23.4577V43.454C23.4577 42.4588 23.166 41.968 22.3937 41.968C21.4932 41.968 21.107 42.4706 21.107 43.6994V46.8704H19.446V40.821Z" fill="#1D1E1C"/>
<path d="M27.7471 44.2492C27.7935 45.3026 28.3077 45.7816 29.2318 45.7816C29.8997 45.7816 30.4376 45.3726 30.5421 44.9982H32.005C31.5371 46.426 30.5421 47.0349 29.1737 47.0349C27.2664 47.0349 26.0852 45.7234 26.0852 43.8512C26.0852 42.038 27.3373 40.6565 29.1737 40.6565C31.2327 40.6565 32.2267 42.3888 32.1104 44.2492H27.7471ZM30.4494 43.1959C30.2968 42.3543 29.9342 41.9098 29.1264 41.9098C28.0742 41.9098 27.7698 42.7287 27.7471 43.1959H30.4494Z" fill="#1D1E1C"/>
<path d="M34.3778 44.9045C34.3896 45.6298 34.9984 45.9234 35.6526 45.9234C36.1324 45.9234 36.7412 45.7352 36.7412 45.1508C36.7412 44.6473 36.0506 44.4719 34.8576 44.2147C33.898 44.0039 32.9385 43.6639 32.9385 42.5997C32.9385 41.0555 34.2724 40.6565 35.5708 40.6565C36.8929 40.6565 38.1096 41.1018 38.2386 42.5878H36.6585C36.6121 41.9444 36.1215 41.7689 35.5245 41.7689C35.1501 41.7689 34.6004 41.8389 34.6004 42.3306C34.6004 42.9278 35.5354 43.0096 36.4831 43.2322C37.4545 43.454 38.4022 43.8048 38.4022 44.9282C38.4022 46.5196 37.0219 47.0349 35.6417 47.0349C34.2379 47.0349 32.8685 46.5078 32.7986 44.9045H34.3778Z" fill="#1D1E1C"/>
<path d="M41.475 40.8209H42.6916V41.9325H41.475V44.9281C41.475 45.4898 41.6158 45.6297 42.1774 45.6297C42.3527 45.6297 42.5163 45.6188 42.6916 45.5834V46.8822C42.4109 46.9285 42.0483 46.9403 41.7212 46.9403C40.7026 46.9403 39.814 46.7068 39.814 45.5007V41.9325H38.8081V40.8209H39.814V39.0068H41.475V40.8209Z" fill="#1D1E1C"/>
<path d="M46.9467 47.6312C46.5842 48.6028 46.0108 48.9999 44.8651 48.9999C44.5252 48.9999 44.1863 48.9772 43.8465 48.9418V47.5721C44.1627 47.5957 44.4907 47.643 44.8178 47.6312C45.3912 47.5721 45.5783 46.975 45.3912 46.496L43.2622 40.821H45.0404L46.4088 44.9628H46.4325L47.7536 40.821H49.4737L46.9467 47.6312Z" fill="#1D1E1C"/>
<path d="M52.9648 40.821H54.6258V46.8704H52.9648V40.821ZM54.6258 39.8858H52.9648V38.5161H54.6258V39.8858Z" fill="#1D1E1C"/>
<path d="M55.699 40.821H57.2782V41.6635H57.3136C57.7343 40.9846 58.4594 40.6565 59.1618 40.6565C60.9282 40.6565 61.3725 41.6517 61.3725 43.1495V46.8704H59.7115V43.454C59.7115 42.4588 59.419 41.968 58.6466 41.968C57.7461 41.968 57.3609 42.4706 57.3609 43.6994V46.8704H55.699V40.821Z" fill="#1D1E1C"/>
<path d="M64.7372 40.8209H65.9548V41.9325H64.7372V44.9281C64.7372 45.4898 64.8771 45.6297 65.4396 45.6297C65.614 45.6297 65.7776 45.6188 65.9548 45.5834V46.8822C65.6731 46.9285 65.3114 46.9403 64.9825 46.9403C63.9648 46.9403 63.0762 46.7068 63.0762 45.5007V41.9325H62.0703V40.8209H63.0762V39.0068H64.7372V40.8209Z" fill="#1D1E1C"/>
<path d="M68.1736 44.2492C68.2209 45.3026 68.7343 45.7816 69.6593 45.7816C70.3262 45.7816 70.8632 45.3726 70.9686 44.9982H72.4306C71.9636 46.426 70.9686 47.0349 69.6011 47.0349C67.6939 47.0349 66.5117 45.7234 66.5117 43.8512C66.5117 42.038 67.7638 40.6565 69.6011 40.6565C71.6592 40.6565 72.6541 42.3888 72.5378 44.2492H68.1736ZM70.875 43.1959C70.7233 42.3543 70.3616 41.9098 69.5529 41.9098C68.5007 41.9098 68.1972 42.7287 68.1736 43.1959H70.875Z" fill="#1D1E1C"/>
<path d="M73.5183 40.821H75.0966V41.9444H75.1202C75.4237 41.1836 76.2424 40.6565 77.0493 40.6565C77.1665 40.6565 77.3083 40.681 77.4127 40.7156V42.2606C77.261 42.2252 77.0148 42.2025 76.8158 42.2025C75.5991 42.2025 75.1784 43.0795 75.1784 44.1438V46.8704H73.5183V40.821Z" fill="#1D1E1C"/>
<path d="M78.1833 40.821H79.7626V41.6635H79.7971C80.2178 40.9846 80.9429 40.6565 81.6453 40.6565C83.4126 40.6565 83.856 41.6517 83.856 43.1495V46.8704H82.195V43.454C82.195 42.4588 81.9015 41.968 81.131 41.968C80.2296 41.968 79.8443 42.4706 79.8443 43.6994V46.8704H78.1833V40.821Z" fill="#1D1E1C"/>
<path d="M85.0444 42.6815C85.138 41.1255 86.5301 40.6565 87.8876 40.6565C89.0933 40.6565 90.5435 40.9264 90.5435 42.377V45.5253C90.5435 46.0752 90.6026 46.625 90.7543 46.8704H89.0697C89.0097 46.6832 88.9652 46.4842 88.9516 46.286C88.4264 46.835 87.654 47.0349 86.9171 47.0349C85.7704 47.0349 84.8582 46.4605 84.8582 45.2208C84.8582 43.8512 85.8867 43.524 86.9171 43.384C87.9348 43.2322 88.8816 43.2668 88.8816 42.5878C88.8816 41.8744 88.391 41.7689 87.8058 41.7689C87.1743 41.7689 86.7636 42.0262 86.7054 42.6815H85.0444ZM88.8816 43.9102C88.6008 44.1556 88.0157 44.1674 87.5005 44.2611C86.9871 44.3656 86.5192 44.5419 86.5192 45.1508C86.5192 45.7707 86.9989 45.9234 87.5377 45.9234C88.8344 45.9234 88.8816 44.8927 88.8816 44.5301V43.9102Z" fill="#1D1E1C"/>
<path d="M93.9336 40.8209H95.1512V41.9325H93.9336V44.9281C93.9336 45.4898 94.0736 45.6297 94.636 45.6297C94.8105 45.6297 94.974 45.6188 95.1512 45.5834V46.8822C94.8686 46.9285 94.507 46.9403 94.179 46.9403C93.1613 46.9403 92.2726 46.7068 92.2726 45.5007V41.9325H91.2659V40.8209H92.2726V39.0068H93.9336V40.8209Z" fill="#1D1E1C"/>
<path d="M95.9899 40.821H97.6509V46.8704H95.9899V40.821ZM97.65 39.8858H95.989V38.5161H97.65V39.8858Z" fill="#1D1E1C"/>
<path d="M101.661 40.6565C103.566 40.6565 104.796 41.9207 104.796 43.8512C104.796 45.7707 103.566 47.0349 101.661 47.0349C99.7644 47.0349 98.5359 45.7707 98.5359 43.8512C98.5359 41.9207 99.7644 40.6565 101.661 40.6565ZM101.661 45.7816C102.794 45.7816 103.135 44.8109 103.135 43.8512C103.135 42.8796 102.794 41.9098 101.661 41.9098C100.537 41.9098 100.198 42.8796 100.198 43.8512C100.198 44.8109 100.537 45.7816 101.661 45.7816Z" fill="#1D1E1C"/>
<path d="M105.867 40.821H107.446V41.6635H107.481C107.903 40.9846 108.628 40.6565 109.33 40.6565C111.096 40.6565 111.541 41.6517 111.541 43.1495V46.8704H109.879V43.454C109.879 42.4588 109.588 41.968 108.815 41.968C107.915 41.968 107.528 42.4706 107.528 43.6994V46.8704H105.867V40.821Z" fill="#1D1E1C"/>
<path d="M112.613 42.6815C112.707 41.1255 114.099 40.6565 115.455 40.6565C116.66 40.6565 118.111 40.9264 118.111 42.377V45.5253C118.111 46.0752 118.169 46.625 118.321 46.8704H116.637C116.579 46.6832 116.531 46.4842 116.521 46.286C115.994 46.835 115.221 47.0349 114.484 47.0349C113.338 47.0349 112.425 46.4605 112.425 45.2208C112.425 43.8512 113.456 43.524 114.484 43.384C115.501 43.2322 116.451 43.2668 116.451 42.5878C116.451 41.8744 115.958 41.7689 115.373 41.7689C114.741 41.7689 114.333 42.0262 114.274 42.6815H112.613ZM116.451 43.9102C116.168 44.1556 115.585 44.1674 115.069 44.2611C114.554 44.3656 114.087 44.5419 114.087 45.1508C114.087 45.7707 114.566 45.9234 115.105 45.9234C116.403 45.9234 116.451 44.8927 116.451 44.5301V43.9102Z" fill="#1D1E1C"/>
<path d="M119.444 38.5161H121.105V46.8704H119.444V38.5161Z" fill="#1D1E1C"/>
</g>
<defs>
<clipPath id="clip0_431_3589">
<rect width="121" height="60" fill="white"/>
</clipPath>
</defs>
</svg>
