<svg width="48" height="60" viewBox="0 0 48 60" fill="none" xmlns="http://www.w3.org/2000/svg">
<path d="M23.9095 6C10.7008 6.00503 -0.00333871 16.7524 7.81178e-07 30.0061C0.00334183 43.2597 10.7129 54.0017 23.9216 54C37.1303 53.9983 47.8371 43.2537 47.8371 30C47.8371 23.6332 45.3159 17.5274 40.8283 13.0262C36.3408 8.52509 30.2547 5.99759 23.9095 6Z" fill="#1D1E1C"/>
<path d="M40.6144 40.6617C39.327 41.3577 37.9079 41.7734 36.4495 41.8818C35.6763 41.8768 34.9229 41.6354 34.2899 41.1898C30.4154 38.6041 31.7402 35.5085 34.3807 30.7012C35.5909 28.7346 36.5368 26.6161 37.1936 24.4007C37.7471 22.0699 38.2461 18.6739 36.2317 16.1063C35.1041 14.796 33.6182 13.8463 31.958 13.3749C29.5136 12.6513 26.9751 12.2983 24.4267 12.3279H23.4195C20.8711 12.2985 18.3327 12.6514 15.8883 13.3749C14.2281 13.8463 12.7422 14.796 11.6145 16.1063C9.60012 18.6739 10.0992 22.0699 10.6618 24.4007C11.308 26.6155 12.2447 28.7342 13.4474 30.7012C16.0879 35.4994 17.4127 38.6041 13.5381 41.1898C12.9057 41.6365 12.152 41.878 11.3786 41.8818C9.93275 41.7679 8.52655 41.3523 7.25 40.6617L7.47685 41.0623C9.34605 43.9394 11.7869 45.469 14.509 45.469C15.8109 45.4325 17.0907 45.1223 18.2656 44.5585C19.6966 43.8938 20.8836 42.7951 21.6592 41.4174C22.4487 40.1303 22.7694 38.6085 22.5666 37.1109C22.1238 35.5104 21.5844 33.9385 20.9514 32.4038C19.0459 27.4508 16.4145 20.686 18.6921 17.381C19.5995 15.988 21.3507 15.3051 23.9095 15.296C26.4683 15.2869 28.1833 15.988 29.127 17.381C31.3773 20.686 28.7731 27.4508 26.8676 32.3946C26.2253 33.9412 25.6769 35.5252 25.2252 37.1382C25.0195 38.6388 25.3403 40.1645 26.1326 41.4538C26.9072 42.8345 28.0942 43.9364 29.5262 44.6041C30.7013 45.1673 31.981 45.4775 33.2828 45.5145C36.0049 45.5145 38.473 43.9849 40.3966 41.0896L40.6144 40.6617Z" fill="#FFF8F1"/>
</svg>
