<svg width="69" height="60" viewBox="0 0 69 60" fill="none" xmlns="http://www.w3.org/2000/svg">
<g clip-path="url(#clip0_431_3627)">
<path d="M23.0997 21.3002L16.0286 33.2143V41.2288C16.8426 43.1572 18.8998 43.4141 20.8715 43.5001V44.6143H7.02848V43.5001C8.99996 43.4141 11.3999 43.1145 12.0427 41.8289V33.5571L4.84275 21.3857C3.60012 19.3286 2.40013 18.6432 0 18.4715V17.3574H12.0429V18.4715C9.7713 18.6 9.04286 19.0289 8.4001 19.5434L15.0857 31.1143L21.6428 19.5859C20.9571 19.0717 20.0572 18.6 17.7858 18.4717V17.3575H28.0713V18.4717C25.757 18.5575 24.2998 19.3286 23.0997 21.3002ZM37.1566 45C34.8426 45 33.7281 43.4141 33.6425 42.3002C32.1852 43.8429 30.2998 45 28.4998 45C26.1855 45 24.2139 43.5856 24.2139 41.1433C24.2139 39.9429 24.5139 38.7 25.1141 37.7145L33.6425 34.6287V31.4572C33.6425 29.5288 32.7424 27.6859 30.8138 27.6859C29.6567 27.6859 28.5424 29.0999 28.4569 31.2859L24.5995 31.9284V31.5003C25.8851 27.6427 30.1282 26.1431 32.185 26.1431C36.0851 26.1431 37.4993 28.1999 37.4566 31.3714L37.3281 40.3712C37.2852 42.1285 38.2279 42.557 39.0852 42.557C39.7707 42.557 40.4564 42.1285 41.2709 41.3143V42.557C40.3283 43.6716 38.657 45 37.1566 45ZM28.5855 38.0144C28.414 38.7 28.2855 39.3 28.2855 40.2429C28.2855 41.5285 29.0141 42.814 30.4282 42.814C31.7139 42.814 32.4425 42.3859 33.5997 41.4857L33.6425 35.6997C32.5283 36.214 29.7856 37.4144 28.5855 38.0144ZM41.6568 44.6143V43.6284C43.5853 43.4999 44.1421 43.0714 44.4855 42.3424V20.1427C44.4855 18.6855 44.2709 18.0858 41.3139 17.8285V16.9715L49.1569 15L49.4137 15.729L48.1711 17.2717V42.3426C48.5996 43.2 49.4137 43.5001 51.171 43.6285V44.6144H41.6568V44.6143ZM61.4563 44.9571C56.9565 44.9571 53.485 41.4 53.485 36.4286C53.485 30.3428 57.2138 26.1856 62.4852 26.1856C66.7279 26.1856 69.0851 28.5861 69.0851 32.4001V33.1714L57.5138 33.0859C57.4282 33.5571 57.3849 34.3289 57.3849 35.2715C57.3849 39.6428 60.1279 42.5142 63.7711 42.5142C65.9564 42.5142 67.071 41.7427 68.7849 40.2857L69.4278 41.2712C66.9852 43.5001 64.9708 44.9571 61.4563 44.9571ZM61.8425 27.5145C59.6992 27.5145 58.1997 29.2286 57.6853 31.9284L65.2285 31.8428C65.2283 29.5714 63.8137 27.5145 61.8425 27.5145Z" fill="#1D1E1C"/>
</g>
<defs>
<clipPath id="clip0_431_3627">
<rect width="69" height="60" fill="white"/>
</clipPath>
</defs>
</svg>
