<svg width="68" height="60" viewBox="0 0 68 60" fill="none" xmlns="http://www.w3.org/2000/svg">
<g clip-path="url(#clip0_431_3570)">
<path d="M50.8039 38.225V41.7949H35.6796V36.547L35.622 36.5265C35.5538 36.6561 35.496 36.7909 35.4492 36.9297C35.2306 37.8904 34.8109 38.7938 34.2178 39.5805C33.4847 40.5095 32.5002 41.2083 31.3814 41.594C30.9641 41.7463 30.5302 41.85 30.1014 41.978C30.0442 41.9897 29.9855 41.9932 29.9273 41.9882C28.1725 41.9882 26.4176 41.978 24.6627 41.9946C24.1585 41.9975 23.6569 41.9206 23.1767 41.7668C22.0989 41.4263 21.1287 40.9015 20.353 40.0695C20.0254 39.7175 19.7591 39.3079 19.457 38.9278C19.4097 38.8779 19.3578 38.8325 19.3022 38.7921L19.2574 38.8292L19.8551 41.7949H13.3438C13.0878 40.4714 12.8344 39.1402 12.5835 37.8014H7.05912C6.80312 39.1313 6.54712 40.4727 6.29113 41.8141H0C1.61022 34.0361 3.21788 26.2644 4.82298 18.4992H15.0462C16.0941 23.5551 17.1403 28.6085 18.1847 33.6593H18.2359C18.2779 33.5215 18.307 33.3801 18.323 33.2369C18.3409 32.5287 18.352 31.82 18.3563 31.1109C18.3627 29.8309 18.3563 28.5624 18.3691 27.2876C18.3806 26.4095 18.4036 25.5302 18.4599 24.6546C18.5483 23.2556 18.9348 21.9526 19.7898 20.8147C20.6065 19.728 21.6919 19.0227 22.968 18.5965C23.7194 18.3479 24.4967 18.186 25.2848 18.1139C25.8976 18.0428 26.5137 18.0048 27.1306 18C28.5744 18.0179 30.008 18.151 31.3878 18.6131C33.5023 19.3197 34.8079 20.7891 35.3852 22.9267C35.4466 23.1558 35.5362 23.3772 35.613 23.6025L35.6693 23.5871V18.5069H42.2894V35.4142H50.1946V18.4979H56.798V18.7078C56.798 22.3089 56.798 25.9086 56.798 29.5071C56.798 31.0802 56.8044 32.6533 56.8288 34.2251C56.8374 34.554 56.8934 34.8799 56.9952 35.1928C57.1948 35.8199 57.703 36.1476 58.4531 36.1579C58.9751 36.1733 59.4976 36.1617 60.0185 36.1233C60.7558 36.0567 61.1577 35.6971 61.3266 34.9252C61.3904 34.6308 61.4234 34.3305 61.4252 34.0292C61.4329 28.9204 61.4363 23.8116 61.4354 18.7027V18.5005H68.0824V19.6C68.0824 22.9749 68.0824 26.3506 68.0824 29.7272C68.0824 30.2815 68.0824 30.8357 68.0824 31.3912C68.0824 32.7121 68.108 34.0344 67.9941 35.3592C67.8661 36.7915 67.491 38.1342 66.6296 39.3105C65.7106 40.5623 64.4703 41.3469 63.0034 41.8039C62.5836 41.9363 62.1457 42.0023 61.7055 41.9999C60.0253 41.9869 58.3451 41.9869 56.6649 41.9999C56.1552 42.0037 55.6481 41.9273 55.1622 41.7732C54.044 41.4486 53.0277 40.8426 52.2106 40.0132C51.7795 39.5587 51.4098 39.0496 51.1111 38.499C51.0358 38.3893 50.9501 38.2873 50.8551 38.1943L50.8039 38.225ZM29.6931 27.9058C29.6931 27.8252 29.6931 27.756 29.6931 27.6882C29.67 26.9599 29.6752 26.229 29.6137 25.5033C29.5523 24.7775 29.1657 24.373 28.4617 24.2386C27.7191 24.0868 26.9537 24.0846 26.2102 24.2322C25.6215 24.3602 25.2106 24.6969 25.0749 25.2998C24.9979 25.6086 24.955 25.9249 24.9469 26.2431C24.9375 28.734 24.9375 31.2244 24.9469 33.7144C24.9512 34.0866 24.9837 34.4581 25.0442 34.8254C25.1453 35.4654 25.4909 35.9275 26.159 36.058C26.9126 36.2104 27.689 36.2104 28.4425 36.058C28.9136 35.9607 29.3027 35.7124 29.4755 35.2465C29.5862 34.9491 29.6514 34.6367 29.6688 34.3198C29.7008 33.7246 29.6828 33.1269 29.6841 32.5278C29.6841 32.4715 29.6841 32.4139 29.6841 32.3448H35.5887V27.9058H29.6931ZM9.64725 23.879C9.11136 26.7666 8.57547 29.6496 8.03958 32.5278H11.5992C11.0565 29.6453 10.5151 26.7739 9.97492 23.9135L9.64725 23.879Z" fill="#1D1E1C"/>
</g>
<defs>
<clipPath id="clip0_431_3570">
<rect width="68" height="60" fill="white"/>
</clipPath>
</defs>
</svg>
