<svg width="149" height="60" viewBox="0 0 149 60" fill="none" xmlns="http://www.w3.org/2000/svg">
<g clip-path="url(#clip0_431_3597)">
<path d="M77.5325 21.72L77.2137 20.76L77.5325 19.08L77.3731 19L72.9905 22.68V22.76L77.5325 21.72Z" fill="#1D1E1C"/>
<path d="M10.5979 39.1599C9.80206 39.9794 8.70999 40.441 7.56995 40.4399C4.06387 40.4399 3.18735 37.3199 3.18735 33.6399C3.18735 29.9599 3.98418 26.8399 7.49027 26.8399C8.58928 26.8131 9.64225 27.283 10.3589 28.1199L12.351 31.1599H12.5103V26.5999H12.351L10.5182 27.5599C9.67215 26.8396 8.5996 26.4429 7.49027 26.4399C4.06387 26.4399 0 29.0799 0 33.7199C0 38.3599 3.98418 40.9999 7.56995 40.9999C8.74045 40.9916 9.86999 40.5663 10.7573 39.7999L12.5103 40.8399H12.6697V36.0399H12.5103L10.5979 39.1599Z" fill="#1D1E1C"/>
<path d="M23.6661 26.3601C20.3194 26.3601 16.3352 29.2401 16.3352 33.6401C16.3352 38.0401 20.3194 40.9201 23.6661 40.9201C27.0128 40.9201 30.997 38.0401 30.997 33.6401C30.997 29.2401 27.0925 26.3601 23.6661 26.3601ZM23.6661 40.4401C20.3194 40.4401 19.4429 37.4801 19.4429 33.6401C19.4429 29.8001 20.3194 26.8401 23.6661 26.8401C27.0128 26.8401 27.8893 29.8001 27.8893 33.6401C27.8893 37.4801 27.0925 40.4401 23.6661 40.4401Z" fill="#1D1E1C"/>
<path d="M43.6667 26.9999H45.4197V35.7998H45.3401L39.1247 26.5999H33.5469V26.9999H35.2202V40.2798H33.5469V40.6798H37.5311V40.2798H35.778V26.9999L45.8182 40.9198H45.9775V26.9999H47.6509V26.5999H43.6667V26.9999Z" fill="#1D1E1C"/>
<path d="M56.974 26.5999H50.679V26.9999H52.5117V40.2798H50.679V40.6798H56.974C60.0816 40.6798 65.2611 39.3198 65.2611 33.5598C65.2611 27.7998 60.0816 26.5999 56.974 26.5999ZM56.8146 40.2798H55.3006V26.9999H56.8146C60.48 26.9999 62.1534 29.6398 62.1534 33.6398C62.1534 37.6398 60.48 40.2798 56.8146 40.2798Z" fill="#1D1E1C"/>
<path d="M77.7714 40.2798H72.5123V33.3198H75.1418C75.8924 34.1233 76.511 35.0414 76.9746 36.0398H77.1339V30.1998H76.9746C76.511 31.1982 75.8924 32.1163 75.1418 32.9198H72.5123V26.9999H77.2136C78.5682 27.8798 79.7635 30.3598 79.7635 30.3598H79.9229V26.5999H67.8906V26.9999H69.7233V40.2798H67.8906V40.6798H80.3213V35.9598H80.1619C79.5859 37.5123 78.78 38.9686 77.7714 40.2798Z" fill="#1D1E1C"/>
<path d="M99.2859 26.9999H101.039V35.7998H100.959L94.744 26.5999H89.0864V26.9999H90.8395V40.2798H89.0864V40.6798H93.0706V40.2798H91.3973V26.9999L101.437 40.9198H101.517V26.9999H103.27V26.5999H99.2859V26.9999Z" fill="#1D1E1C"/>
<path d="M112.274 26.1201H112.115L106.139 40.2001H104.465V40.6001H108.21V40.2001H106.617L108.768 35.1601H113.31L115.621 40.2001H113.788V40.6001H120.322V40.2001H118.649L112.274 26.1201ZM109.007 34.8401L111.079 29.9601L113.231 34.8401H109.007Z" fill="#1D1E1C"/>
<path d="M130.203 32.44L127.414 31.48C126.06 31 124.944 30.36 124.944 29C124.944 27.64 126.139 26.76 127.972 26.76C128.899 26.6823 129.809 27.0363 130.442 27.72L132.434 30.76H132.594V26.28H132.434L130.602 27.24C129.873 26.6049 128.937 26.2629 127.972 26.28C126.825 26.2146 125.701 26.6212 124.859 27.4062C124.017 28.1911 123.53 29.2866 123.51 30.44C123.51 32.44 124.944 33.48 126.458 34.04L129.247 35.08C130.761 35.64 131.717 36.28 131.717 37.72C131.717 39.16 130.761 40.36 128.37 40.36C127.209 40.3032 126.095 39.8836 125.183 39.16L123.111 35.72H122.872V40.6H123.111L124.864 39.64C125.831 40.376 126.999 40.795 128.211 40.84C131.239 40.84 133.231 38.68 133.231 36.28C133.231 33.88 131.956 33 130.203 32.44Z" fill="#1D1E1C"/>
<path d="M136.498 26.5999V30.9998H136.658C137.339 29.5831 138.167 28.2424 139.128 26.9999H141.598V40.2798H139.367V40.6798H146.618V40.2798H144.387V26.9999H146.857C147.818 28.2424 148.646 29.5831 149.327 30.9998H149.487V26.6799H136.498V26.5999Z" fill="#1D1E1C"/>
</g>
<defs>
<clipPath id="clip0_431_3597">
<rect width="149" height="60" fill="white"/>
</clipPath>
</defs>
</svg>
