<svg width="48" height="60" viewBox="0 0 48 60" fill="none" xmlns="http://www.w3.org/2000/svg">
<path d="M24.0015 8.5938C18.0924 8.5938 12.741 10.9906 8.86657 14.868C4.99063 18.7366 2.59527 24.0909 2.59527 30.003C2.59527 35.9106 4.99063 41.2612 8.86657 45.1312C12.741 49.0035 18.0924 51.4047 24.0015 51.4047C29.912 51.4047 35.2663 49.0035 39.1349 45.1312C43.0094 41.2612 45.3996 35.9106 45.3996 30.003C45.3996 24.0909 43.0094 18.7366 39.1349 14.868C35.2663 10.9906 29.912 8.5938 24.0015 8.5938ZM24.0015 6C37.2545 6 48 16.747 48 30.003C48 43.2545 37.2545 54 24.0015 54C10.7499 54 0 43.2545 0 30.003C0 16.747 10.7499 6 24.0015 6Z" fill="#1D1E1C"/>
<path d="M12.6505 29.8073C12.6505 28.4086 11.7224 27.6141 10.4085 27.6141H9.60444V32.002H10.3857C11.6073 32.002 12.6505 31.338 12.6505 29.8073ZM26.954 31.386L21.0301 36.0505L15.6161 31.788C14.8348 33.6648 12.947 34.9683 10.773 34.9683H6.1394L6.1394 24.6462H10.773C13.2023 24.6462 14.9529 26.191 15.6146 27.8368L21.0301 23.5788L23.036 25.1575L18.0726 29.0585L19.0265 29.8051L23.9884 25.9063L25.9971 27.4805L21.0346 31.386L21.9869 32.134L26.954 28.2278V24.6462L30.5547 24.6462V31.9555H34.1467V34.9809H26.954V31.386ZM38.7079 31.957H42.2984V34.9809H35.1035V24.6462H38.7079V31.957Z" fill="#1D1E1C"/>
</svg>
